<mxfile host="drawio.corp.amazon.com" modified="2025-06-04T01:57:26.690Z" agent="Mozilla/5.0 (Macintosh; Intel Mac OS X 10_15_7) AppleWebKit/537.36 (KHTML, like Gecko) Chrome/136.0.0.0 Safari/537.36" etag="MncgMZHTWA631bskVlqE" version="21.7.4" type="device" pages="3">
  <diagram name="General - Browser Flow" id="rQI57NWqepOQe1rzl8BK">
    <mxGraphModel dx="4041" dy="1723" grid="1" gridSize="10" guides="1" tooltips="1" connect="1" arrows="1" fold="1" page="1" pageScale="1" pageWidth="850" pageHeight="1100" math="0" shadow="0">
      <root>
        <mxCell id="0" />
        <mxCell id="1" parent="0" />
        <mxCell id="B7lXgrt5KGGZ7GxgYbc7-20" style="edgeStyle=orthogonalEdgeStyle;rounded=0;orthogonalLoop=1;jettySize=auto;html=1;entryX=-0.006;entryY=0.501;entryDx=0;entryDy=0;entryPerimeter=0;shadow=1;strokeWidth=8;" parent="1" source="mf8dDh4Pgo7jrh_sP42b-2" target="B7lXgrt5KGGZ7GxgYbc7-14" edge="1">
          <mxGeometry relative="1" as="geometry" />
        </mxCell>
        <mxCell id="mf8dDh4Pgo7jrh_sP42b-2" value="" style="strokeWidth=1;shadow=0;dashed=0;align=center;html=1;shape=mxgraph.mockup.containers.browserWindow;rSize=0;strokeColor=#666666;strokeColor2=#008cff;strokeColor3=#c4c4c4;mainText=,;recursiveResize=0;" parent="1" vertex="1">
          <mxGeometry x="-155" y="235" width="636.84" height="440" as="geometry" />
        </mxCell>
        <mxCell id="mf8dDh4Pgo7jrh_sP42b-3" value="Page 1" style="strokeWidth=1;shadow=0;dashed=0;align=center;html=1;shape=mxgraph.mockup.containers.anchor;fontSize=17;fontColor=#666666;align=left;whiteSpace=wrap;" parent="mf8dDh4Pgo7jrh_sP42b-2" vertex="1">
          <mxGeometry x="60" y="12" width="110" height="26" as="geometry" />
        </mxCell>
        <mxCell id="mf8dDh4Pgo7jrh_sP42b-4" value="https://application.project.branch.mil" style="strokeWidth=1;shadow=0;dashed=0;align=center;html=1;shape=mxgraph.mockup.containers.anchor;rSize=0;fontSize=17;fontColor=#666666;align=left;" parent="mf8dDh4Pgo7jrh_sP42b-2" vertex="1">
          <mxGeometry x="130" y="60" width="250" height="26" as="geometry" />
        </mxCell>
        <mxCell id="B7lXgrt5KGGZ7GxgYbc7-1" value="Browser (User Agent)" style="rounded=1;whiteSpace=wrap;html=1;fillColor=#dae8fc;strokeColor=#6c8ebf;" parent="1" vertex="1">
          <mxGeometry x="40" y="100" width="160" height="60" as="geometry" />
        </mxCell>
        <mxCell id="B7lXgrt5KGGZ7GxgYbc7-2" value="Client Application" style="rounded=1;whiteSpace=wrap;html=1;fillColor=#e1d5e7;strokeColor=#9673a6;" parent="1" vertex="1">
          <mxGeometry x="240" y="100" width="160" height="60" as="geometry" />
        </mxCell>
        <mxCell id="B7lXgrt5KGGZ7GxgYbc7-3" value="Redirect to Keycloak (Auth Request)" style="rounded=1;whiteSpace=wrap;html=1;fillColor=#fff2cc;strokeColor=#d6b656;" parent="1" vertex="1">
          <mxGeometry x="440" y="100" width="220" height="60" as="geometry" />
        </mxCell>
        <mxCell id="B7lXgrt5KGGZ7GxgYbc7-4" value="Keycloak Login Page" style="rounded=1;whiteSpace=wrap;html=1;fillColor=#f8cecc;strokeColor=#b85450;" parent="1" vertex="1">
          <mxGeometry x="700" y="100" width="160" height="60" as="geometry" />
        </mxCell>
        <mxCell id="B7lXgrt5KGGZ7GxgYbc7-5" value="Authorization Code Response" style="rounded=1;whiteSpace=wrap;html=1;fillColor=#d5e8d4;strokeColor=#82b366;" parent="1" vertex="1">
          <mxGeometry x="880" y="100" width="200" height="60" as="geometry" />
        </mxCell>
        <mxCell id="B7lXgrt5KGGZ7GxgYbc7-6" value="Token Exchange (Code for Token)" style="rounded=1;whiteSpace=wrap;html=1;fillColor=#e4dfda;strokeColor=#967969;" parent="1" vertex="1">
          <mxGeometry x="1120" y="100" width="220" height="60" as="geometry" />
        </mxCell>
        <mxCell id="B7lXgrt5KGGZ7GxgYbc7-7" value="Authenticated Session&lt;br&gt;Return to Client Application" style="rounded=1;whiteSpace=wrap;html=1;fillColor=#d0e1f9;strokeColor=#5b9bd5;" parent="1" vertex="1">
          <mxGeometry x="1400" y="100" width="160" height="60" as="geometry" />
        </mxCell>
        <mxCell id="B7lXgrt5KGGZ7GxgYbc7-8" style="edgeStyle=orthogonalEdgeStyle;rounded=0;html=1;exitX=1;exitY=0.5;exitPerimeter=1;entryX=0;entryY=0.5;entryPerimeter=1;" parent="1" source="B7lXgrt5KGGZ7GxgYbc7-1" target="B7lXgrt5KGGZ7GxgYbc7-2" edge="1">
          <mxGeometry relative="1" as="geometry" />
        </mxCell>
        <mxCell id="B7lXgrt5KGGZ7GxgYbc7-9" style="edgeStyle=orthogonalEdgeStyle;rounded=0;html=1;exitX=1;exitY=0.5;exitPerimeter=1;entryX=0;entryY=0.5;entryPerimeter=1;" parent="1" source="B7lXgrt5KGGZ7GxgYbc7-2" target="B7lXgrt5KGGZ7GxgYbc7-3" edge="1">
          <mxGeometry relative="1" as="geometry" />
        </mxCell>
        <mxCell id="B7lXgrt5KGGZ7GxgYbc7-10" style="edgeStyle=orthogonalEdgeStyle;rounded=0;html=1;exitX=1;exitY=0.5;exitPerimeter=1;entryX=0;entryY=0.5;entryPerimeter=1;" parent="1" source="B7lXgrt5KGGZ7GxgYbc7-3" target="B7lXgrt5KGGZ7GxgYbc7-4" edge="1">
          <mxGeometry relative="1" as="geometry" />
        </mxCell>
        <mxCell id="B7lXgrt5KGGZ7GxgYbc7-11" style="edgeStyle=orthogonalEdgeStyle;rounded=0;html=1;exitX=1;exitY=0.5;exitPerimeter=1;entryX=0;entryY=0.5;entryPerimeter=1;" parent="1" source="B7lXgrt5KGGZ7GxgYbc7-4" target="B7lXgrt5KGGZ7GxgYbc7-5" edge="1">
          <mxGeometry relative="1" as="geometry" />
        </mxCell>
        <mxCell id="B7lXgrt5KGGZ7GxgYbc7-12" style="edgeStyle=orthogonalEdgeStyle;rounded=0;html=1;exitX=1;exitY=0.5;exitPerimeter=1;entryX=0;entryY=0.5;entryPerimeter=1;" parent="1" source="B7lXgrt5KGGZ7GxgYbc7-5" target="B7lXgrt5KGGZ7GxgYbc7-6" edge="1">
          <mxGeometry relative="1" as="geometry" />
        </mxCell>
        <mxCell id="B7lXgrt5KGGZ7GxgYbc7-13" style="edgeStyle=orthogonalEdgeStyle;rounded=0;html=1;exitX=1;exitY=0.5;exitPerimeter=1;entryX=0;entryY=0.5;entryPerimeter=1;" parent="1" source="B7lXgrt5KGGZ7GxgYbc7-6" target="B7lXgrt5KGGZ7GxgYbc7-7" edge="1">
          <mxGeometry relative="1" as="geometry" />
        </mxCell>
        <mxCell id="B7lXgrt5KGGZ7GxgYbc7-21" style="edgeStyle=orthogonalEdgeStyle;rounded=0;orthogonalLoop=1;jettySize=auto;html=1;entryX=0;entryY=0.496;entryDx=0;entryDy=0;entryPerimeter=0;shadow=1;strokeWidth=8;" parent="1" source="B7lXgrt5KGGZ7GxgYbc7-14" target="B7lXgrt5KGGZ7GxgYbc7-17" edge="1">
          <mxGeometry relative="1" as="geometry" />
        </mxCell>
        <mxCell id="B7lXgrt5KGGZ7GxgYbc7-14" value="" style="strokeWidth=1;shadow=0;dashed=0;align=center;html=1;shape=mxgraph.mockup.containers.browserWindow;rSize=0;strokeColor=#666666;strokeColor2=#008cff;strokeColor3=#c4c4c4;mainText=,;recursiveResize=0;" parent="1" vertex="1">
          <mxGeometry x="590" y="240" width="550" height="430" as="geometry" />
        </mxCell>
        <mxCell id="B7lXgrt5KGGZ7GxgYbc7-15" value="Page 1" style="strokeWidth=1;shadow=0;dashed=0;align=center;html=1;shape=mxgraph.mockup.containers.anchor;fontSize=17;fontColor=#666666;align=left;whiteSpace=wrap;" parent="B7lXgrt5KGGZ7GxgYbc7-14" vertex="1">
          <mxGeometry x="60" y="12" width="110" height="26" as="geometry" />
        </mxCell>
        <mxCell id="B7lXgrt5KGGZ7GxgYbc7-16" value="https://sso.project.branch.mil/realms/Realm/...." style="strokeWidth=1;shadow=0;dashed=0;align=center;html=1;shape=mxgraph.mockup.containers.anchor;rSize=0;fontSize=17;fontColor=#666666;align=left;" parent="B7lXgrt5KGGZ7GxgYbc7-14" vertex="1">
          <mxGeometry x="130" y="60" width="250" height="26" as="geometry" />
        </mxCell>
        <mxCell id="B7lXgrt5KGGZ7GxgYbc7-22" value="" style="shape=image;verticalLabelPosition=bottom;labelBackgroundColor=default;verticalAlign=top;aspect=fixed;imageAspect=0;image=data:image/png,iVBORw0KGgoAAAANSUhEUgAAAnAAAAKpCAYAAAA8IhFEAAAEDmlDQ1BrQ0dDb2xvclNwYWNlR2VuZXJpY1JHQgAAOI2NVV1oHFUUPpu5syskzoPUpqaSDv41lLRsUtGE2uj+ZbNt3CyTbLRBkMns3Z1pJjPj/KRpKT4UQRDBqOCT4P9bwSchaqvtiy2itFCiBIMo+ND6R6HSFwnruTOzu5O4a73L3PnmnO9+595z7t4LkLgsW5beJQIsGq4t5dPis8fmxMQ6dMF90A190C0rjpUqlSYBG+PCv9rt7yDG3tf2t/f/Z+uuUEcBiN2F2Kw4yiLiZQD+FcWyXYAEQfvICddi+AnEO2ycIOISw7UAVxieD/Cyz5mRMohfRSwoqoz+xNuIB+cj9loEB3Pw2448NaitKSLLRck2q5pOI9O9g/t/tkXda8Tbg0+PszB9FN8DuPaXKnKW4YcQn1Xk3HSIry5ps8UQ/2W5aQnxIwBdu7yFcgrxPsRjVXu8HOh0qao30cArp9SZZxDfg3h1wTzKxu5E/LUxX5wKdX5SnAzmDx4A4OIqLbB69yMesE1pKojLjVdoNsfyiPi45hZmAn3uLWdpOtfQOaVmikEs7ovj8hFWpz7EV6mel0L9Xy23FMYlPYZenAx0yDB1/PX6dledmQjikjkXCxqMJS9WtfFCyH9XtSekEF+2dH+P4tzITduTygGfv58a5VCTH5PtXD7EFZiNyUDBhHnsFTBgE0SQIA9pfFtgo6cKGuhooeilaKH41eDs38Ip+f4At1Rq/sjr6NEwQqb/I/DQqsLvaFUjvAx+eWirddAJZnAj1DFJL0mSg/gcIpPkMBkhoyCSJ8lTZIxk0TpKDjXHliJzZPO50dR5ASNSnzeLvIvod0HG/mdkmOC0z8VKnzcQ2M/Yz2vKldduXjp9bleLu0ZWn7vWc+l0JGcaai10yNrUnXLP/8Jf59ewX+c3Wgz+B34Df+vbVrc16zTMVgp9um9bxEfzPU5kPqUtVWxhs6OiWTVW+gIfywB9uXi7CGcGW/zk98k/kmvJ95IfJn/j3uQ+4c5zn3Kfcd+AyF3gLnJfcl9xH3OfR2rUee80a+6vo7EK5mmXUdyfQlrYLTwoZIU9wsPCZEtP6BWGhAlhL3p2N6sTjRdduwbHsG9kq32sgBepc+xurLPW4T9URpYGJ3ym4+8zA05u44QjST8ZIoVtu3qE7fWmdn5LPdqvgcZz8Ww8BWJ8X3w0PhQ/wnCDGd+LvlHs8dRy6bLLDuKMaZ20tZrqisPJ5ONiCq8yKhYM5cCgKOu66Lsc0aYOtZdo5QCwezI4wm9J/v0X23mlZXOfBjj8Jzv3WrY5D+CsA9D7aMs2gGfjve8ArD6mePZSeCfEYt8CONWDw8FXTxrPqx/r9Vt4biXeANh8vV7/+/16ffMD1N8AuKD/A/8leAvFY9bLAAAAOGVYSWZNTQAqAAAACAABh2kABAAAAAEAAAAaAAAAAAACoAIABAAAAAEAAAJwoAMABAAAAAEAAAKpAAAAADGzpCsAAEAASURBVHgB7J0FnJTV+sefmd0lBVGQEhUDFb22InZgJ3Z3Xxv7mqj3b91rgXFtRezuRDFQQBQ7MABBJSQFZGP2f56znNl33p3ed2rnez6f4Zz39Pm+7878eE68oYMPPrhecFJXVyf19aAoxkdB70t1dXUxdq0k+qT8eLYLe6uCfn5ra2sLO6A8tB4KhUQ/OAgESSASibSY35PKIMGUcl38wBXn3VNhXQ4/Vrmkrz+CPN+5JJy8btgn55Mo1XFDxCUiRHw2BFrS8xTOBgBlIJAPAoi3fFCmjVwT0OcYlx0BFXFqMXFiLrtaKAWBRgIIuEYWLSLEl0Px3Ua1umF5C+6+tKQvreCo5KcmFSBBu3K7n/odzfd00E8R9ZU6AaZQS/0OtrD+65d0TU0NX9Yt7L6W63CwvgV3552AKzfxGhxBamppBJhCNXfUfTG0tJtbauPR+6CLvbkfpXbn6G8iAgi4RGSyi9fvBqZUs2NHqUYC4XDLkD4lbYEL6oeeL4TGB7tQISfeCtV+ObQb1N9LObAKYozKO1fMc1l3EGPPdR06frXEYY3LNenSqb8cn4WiFnC5+vIrnUeyPHrKZoXyuM/lNkqsb7m9407EIuRyy7lUak+lF1qiwCsaAZcKfqk8RPQzMwK6UYEfusyYkbs0CORi80JpjDy/vXS/HS3xBzq/JFt2a+450VHqFGpL+PssmIDzwiz0Y1NMfSk0i3y1r8xVvLWEP6J8MWtuO/oDx7PeXIrplee5To9TULncc42IC4oo9ZQCgbwKOPdHVgpg6GPuCOhzwE7T3PGl5sITyPUROIjxpvdYv1f0o2wQck35ENNIwD0rGlPKz0peBJzCyrdLt03vjcx3H8uxPeUd9GuFypEjYy5eAul+9zRnBKX8o9OccadT1vGHUTq0yjOP99lwz4uS8MaXApmcCTgvlKBBBFl3kHUFPc6WVp9OK6nlDVc4AjzvuWevazpzzVnrz3UbuSeVuxaUjfsxdn7uWqPmQhBozn1NVNb7N5UoTyHGmqjNnAg4L4REDacbH2Rd8drMdf3x2izHOHaaluNdL88xsymnOO6797u9FH6Mi4Na6fTCe3/9vQ7ifrv6g6jL37+grgMVcG7Azelcc+rIpqyWyaZcc8ZYbmXZrFA8d1y/jHjec3c/8rV5oZh/VHJHN7ua3fMOs+z4lWIpd8+9fffef2/Ymyde2NWVSZl49eQiLhAB5waYbQe95b3hePWlSo9XJlmc1hd0ncnaK6c05Yp4K647zvOe2/uRz805+RKLuSWW39r1R7gYf4jzS6H4W8vFPfL+zmfzJgZXPhd9y/aONFvAuUFl2gFXzvmJyqdKT1QuXny8ujQuXny88sSlT0CZqniDbfrMyFn6BHjei/seuvtTTD/CxU2sML1z9ymd1rO5l835z4/2LZs20xlLpnmaJeAygew65so438U7X+MTpbk8fj/T/N7yzbmR3noINxLQ+8FO00YexRbimc/NHcnH5gVvz5vzveetp9zCys39ADu/3Bi0pPEm+juId2+9cfo96K6dny4X12am5dKtP918WQs4N4B0G3L5ne8tp3Eu3vnedG84Vbo3b6Kwq0N9F06Ul/jMCLBZITNehcjNM58b6rk++y1er7mX8aikjnPcCv0DnLqn5ZcjqHvi7rES1Dr144/zXrt8mRDX8kH1N5N2Xd6sBJx/0K6yeL43rzeseZ0lwMU7X9Nc2Pkal8ylm89bh5Zhx5iXSPPCiLfm8aN06RLQ77JsvoOaM+JCtNmc/hZrWffjXqz9K7d+pfo7ylYweet1dXjjHGeX5q5T+VpHpmVS1ZluesYCLt6AEzWWKK/Gu4+WjRdOVNbbVjp5vPn9Yf0CdCLSn8Z1ZgTYrJAZr0Lm9v69FbIfLantQpxvyH0M5glyvyOF+hEOZhTUkuj+aby7x0pJNzC4vx31XbrzNS7TTQ6unnzfhYwEnHYyXefPq9cuzoXdtfufpD9e23J5nJ+q/XTzaT35XrOSqu+lms5mhdK6c+7vrLR6Xdy9LYQlvxBtFvddCKZ3iYRAMLVTSyICQXD31+FEmbdNpxHifQ+68qpJNOyuveUThbW+TPInqieT+LQFnBt0qsoT5XPx6ns/8cSbS3dt+a9dvPqalq1DwGVLrrFcISwPja0TyoZAsr+nbOor9zL6HaaffDv33Znvdlt6e+5H2PktfbzFPr7m3Act6y2vYf3+c77+Dam1zV0rC29+lzddRpnmT7feRPnSEnDaqXRcvHwalyjefQE5X/O5sLbnDfvbj1enP4//2l9G68dlR0BZIt6yY1cMpXj2g7sLhbKEJft+DG505VuT/pB7f8zLl0Rxjzyde+S9ly6sv2H60b8jjXPTphqn115fCWhcOs6VSydvc/OkFHDamXRcvHz+OL12Xzpef8LPk9NpgjwQgAAEIAABCEAgMAJLta2ydfmFnL8B1S/FJuLC/k5mc+0XalpHsjiXpr5Cw0EAAhCAAAQgAIF8E1Ad4jSJtu2/9vbHm88bHy+cSd545dOJSyrg0ulAvDz+OL12cc5X4eascOl0lDwQgAAEIAABCEAgSAJOk3h9DbuPvy2Xzx9fiOukAi5Vh+INxB/nLGwOhvpOuLlwqnZIhwAEIAABCEAAAkETcNpE69Ww13nT/PHe60Rhf32J8mUbn1DAZdOwv0yya03TjxN42Q6AchCAAAQgAAEIQCAbAuloEb+W0XbixcVrP9188cqmiosr4NJp0J8n3Wusb6luCekQgAAEIAABCOSDgGoXp1+8YX/bLo83Pl6cNz3X4bgCLlWj/k6ne+3yOV/b8YZTtUs6BCAAAQhAAAIQyAUBp0fUd2FvO+nGectoOF45f55srjMWcP6OpHvtz+cscUyhZnPbKAMBCEAAAhCAQHMJqDZxH39dft2i6fHi/OXydd1EwDWnc/6y7tr5bvDu2vn5GiztQAACEIAABCAAAUdAdYjTIs53aeqnExcvj7eORPX482R63UTAJavA30n/tbesprmPi3f5XbzzXTo+BCAAAQhAAAIQyDcBvz7xtu/SvHH+cDp5/GWaex0j4DLpgD+v99obdh10cc538fgQgAAEIAABCECgmAik0iqp0uONJZsy8epxcTECzkXG85M17E1zYedrXS7s9TXsPvHaIw4CEIAABCAAAQjkkoDTIc73tqVxznnDieLi5XF5c+GnLeC8jafqpEtX3/vROlyatz7CEIAABCAAAQhAoNAEnGZx/fBqFm/YpRfSjwq4ZB1LN03zubx+Xwfpj/PmLyQE2oYABCAAAQhAoPwIOF3iH7k3PlFYy3jT4l0nq9eflul1VMClW9DfWVcuUXyi9FT5XTl8CEAAAhCAAAQgkCsCqkfcJ1EbxahZMhZw3sH5B+Suk/neNA27a2+9hCEAAQhAAAIQgEC+CXg1SSKN4s2j/Ut1nasxpBRw/o7F64g3jwsn811avLqIgwAEIAABCEAAAvki4Nckeu2Nc2HnN7dfQdVjBVy6lXnzecM6GP+1d4Auzfkuv/fam58wBCAAAQhAAAIQyBcB1SPuk06bfv2S6jqdOjPNk9ICl6pCb6dd2O9769A0lx4KhaJhbx7CEIAABCAAAQhAIB8EVIt4ndMoztc0F3a+N3+hwkkFXLodjZfPxanv/RQriELdANqFAAQgAAEIQKAwBJw+8bfu1TD+NHft8rjrfPtJBZy3M96OesPePBpOlObi1XdqV8Mu3l8P1xCAAAQgAAEIQCCfBJJpEpfmfH+//PH+a2/+ZGnefMnCaQu4eJV4O+ANu7wa5413YX+8y48PAQhAAAIQgAAEioGAV7MUQ3/8fQi7DvoT0r2OV94f57/21p0szZuPMAQgAAEIQAACEAiSgFuL77SIu07Uhsvn9xPlz2V8Qguc65w2nijsOubSne/K+K+9+TXNm+7S8CEAAQhAAAIQgEA+CHh1iAt7RZyLc36qPqWbL1U96aQnFHCpCifqpD9er71x/rD3OlWbpEMAAhCAAAQgAIGgCLg1+a6+oDVJ0PW5fqqftYDTwt6O+cPea83rdZqWLN2blzAEIAABCEAAAhDIFQG/JnH6xO+79v3x7tql58tvloDTTibruD/Nf52qfL4g0A4EIAABCEAAAuVNIJ5G8RJJle7Nm064ufWlFHDeBrzheJ2Ll65x7qNlXNj58eohDgIQgAAEIAABCOSbgGoTr/Nfe9MShbMpk6iuZPFxBVyqxpOla5o/3c0x++O1Y/HiknWYNAhAAAIQgAAEIBAUAb8OcddOu2g7Li6oNoOoJ66AS6di72C8YVc2XpymuXj1XdiVwYcABCAAAQhAAAL5JhBPjySLc2l+P16/XZ54ac2Jy1rApdOodtr7cWVyNRhXPz4EIAABCEAAAhBIRcCrR7xhb7lE8d48hQg3S8B5B+UNeweSzASpZRKV89ZBGAIQgAAEIAABCARNwKtRtG6nSZzvTXdxQfch2/rSFnBBddzV4/xsO045CEAAAhCAAAQg0FwCyfRIsrRk7WZbLlmd/rS0BZwrmKxTmuY+mt+bN1HY1YsPAQhAAAIQgAAECkEgG43iLVOIPicVcIk65433hr0DcPHqu7A33YWTpbk8+BCAAAQgAAEIQCAXBLzTpInq92oVb9ibP1G8N0+Q4aQCLsiGtC4dnBugNxx0O9QHAQhAAAIQgAAEMiHg1yVOr6SqI918qerJND2nAi4dVZtph8kPAQhAAAIQgAAEgiCQjvjKpZZJp/1E42wi4NKtzJvPG07UkDfem98b9uYhDAEIQAACEIAABApBwKtNEoUL0S9vm00EnDcxqLAO3n28dXqheOMJQwACEIAABCAAgXwQ8FvYcqFNclFnOKhKtR5vXS7s/HzcBNqAAAQgAAEIQAACQREoZg1jBVyQHfTW5Q07mPHiXBo+BCAAAQhAAAIQyDcB1Salpk/sFKp2OhKJBMYrFYRSBBUYHCqCAAQgAAEIQKDkCKTSNvkeUMwaOBVx8ToYLy7fHaU9CEAAAhCAAAQgUAwEnC5yfrw+JUuLlz/TuBgBp4W1wSCtcak6lOsBpmqfdAhAAAIQgAAEypNAKWuQJgLO3cJ41jj/QP3Xrqz6/l0d3jTCEIAABCAAAQhAoBgIePWKV9d4w948xdBn7UNCAaeJ2nnvADQuWxevnnhx2dZPOQhAAAIQgAAEIBAEgVLQJ0kFnELQQcSzxqUDyAHw+i6cTnnyQAACEIAABCAAgWInUAhtU5kulEJ0Lt2+kQ8CEIAABCAAAQjkikC6Gkjz5Wu6NaUFzgtDO5buIFy5TPO7cvgQgAAEIAABCEAgHwTyJbqCHEtGAs41nO2UqiuvPsLOS4MwBCAAAQhAAAKlQKBY9EtWAk4B6wCKZRClcMPpIwQgAAEIQAACEAiKQNpr4BI1mM8z4xL1gXgIQAACEIAABCCQLYFSnEJttoBTWFjisn1kKAcBCEAAAhCAAAQyJxCIgNNmM5lSRfBlfqMoAQEIQAACEIAABByBrNfAuQr8fiZCzl+WawhAAAIQgAAEIJBvAqU4hRq4gFPoKuJYG9fw+K244gqy3rrrSmVlesbOXr16yf777Z92/nw/5PHa67fJJrL9dtvFSyIOAhCAAAQgUPQESlHApacqskRfjta45Xv2lCsHXyGrrrqqdF52WQmHGzXyokWLZPr0GfLFl1/KtdddJ3Pmzo0hu8OAAXLLTTfauPPPO0f69d8sJr0YL/591ZUycO+9bdc+/fRTOeLoY4qxm/QJAhCAAAQg0KIINKqLHA6rXNa87bbrrvLKSy9K/003leW6dIkRb4q3bdu2stJKK8qee+wu7498V64aPFhatWoVJX/IwQdFw+3btZONN9ooel2sAa/lbf31189bN485+mgZPuwhGfPRKOnbd828tUtDECgEgQHbbyd33HabfGC+N0479Z+F6AJtQgACRUYgLwJOx9zSrXEqKG647tomU59qdZs7d16Tnbpqmdt3n4FGgHxkrHWr2MfixZdejj4eNTU18ulnn0WvizXg7ePPP/+St24OOutMWX+99aR9+/ZGLC+Xt3ZpCAKFIHDeOefK1lttKcsss4ws33P5QnSBNiEAgSIjkNMpVP9YW6qI07nz0z3/K66trZW7771XnnvueZkydarFoHn+8Y9/yEknHC/bbrNN9F1ps2b9KT/99LPN89zzz8vMmTONBa+fPPjQsJJYR3jaGWfKoYccIm1at5GHHh7mv+VcQwACEIAABCCQAwJ5FXCu/y1NyK2yysrSunVrNzy56OJL5JVXX41ea0DH/KVZ+6aCRy1u/7n+elll5ZXlSN+asQ8+/FD0UypOxzX8kUdKpbv0EwIQgAAEINAiCIQOOOCAeu9I9AfZOReO53vjNOz/aB0a596bqn5dXZ29Vt99NH7+wmrXZEn6uvZNp0+dW2/DjUStcKlcVVWV6FSpcyrs/n3llfZy9py5csqpp7qkGF83Oxx3zNHSw2yYaN+uvZminSu/TPxFht52u6yxxhqy78CGTQXjP/9crr3+BlvWX/epp58uF11wvmy00cbSa/mepr918t3338nI996XRx97TKqr07snuoHh4AMPsG2MHjtWbrr5Fhv2xw9/5FG5+KILZY3V15AuXTrL/L/+ki+++EJee/11efW112PGl+hi6K23SJfOnW3yOuusE802adJkmTevcUPIQw8PbyKgt9h8c/nnKSebsfaSDh2WksWLF8ufs2bJyy+/Yq2l6dyvsJn2fuDee6LrFp9/4SV59PHHov3wB3bcYQd7n1z8KaedLrNnz3aXstRSS8kZp50q22y9tZ0a053Kc+fNMxbZn+TGm26Rb779JprXBfSZufeu/0X7oJtGvM+Qy6e7n6/7v/+zlt558+fLiSef4pLkvnvulnZmPaa6M84eJPr87rXnnrJy75VM/rDce/+9MmTo7dH8iQK777abXQbQo3sP6dx5WdG+af+nT5sm99x3v7z51luJitr4NVbvI4POPltWX3116WBYLDbP3MSJE2X8+PHyyKOPydTffotbfplOneQsM4W+Wf/+0smE1U2ZMlW++uoree6FF0Q308Rz2fDWenStap/VVrVV3nTLrTJ6zJh41cs95r4sZab01Z17/gVR67uf94DtB8hee+wmK6y4orRu1VomTpooH44aZf7uHpdphp1zl11ysazVt6+97Gt8t5NdNz/9OnmyyybjzHhv+G/D5qdoJAEIQCAtAqFItV2vrt/vqkfU14/OmunHhV1lGqfOpbtwPN8b5w/rtXOuTnedrl9wAac/nAv+Ti120h1QIfJtYBbvP/zQg9GmbxkyVO66++7odbqBAw84QC6/9BKbXX+U1zfiyuv0B/K5Z56W3iut5I2OCWs5zafuF/NjuMdeDWLOW7em6bq8pZfuqMEmTn84tVw6Iu6uO+8QFUfqvv9hguy7//427I1XsVRRURH9AbIZPP+ogDv3/PM9MfGDX30+3v7RxE9tjH3k0Ufl39c0CGr9w3jMWAj/sfZajRl8Ie3fAQcfHJ3K9iXHXH70wfvSsWMDN2W4+VZbxaR7L94y4rRHj+42asGCBdJvswZOGqHrmW4bMsR+OXjLeMPxuHTr1k1GvPlGNNsmRsQsXLgoeu0CKqB1h7A6/RvT/1So0y+jL8c3rq3UNYwbbrCBTXP/vP7GGzLo3PPcZRP/issvk4F77RV9zppkWBKhSwMG7rdf3KUAWscBJi2R0y/S2++4U+743/9isuy6y87mP0vXJX0O3h05Us4adE6MsM2Wtzb+yeiP7QYkDV9z3fXy8PDhGmzivv7i82jcwYcdbi3uft7TZ8yQrsvFX7Opf2/7H3RQ9Dl887XXpGfPHtE6EwV+/vkX2XPgwETJxEMAAkkIeAWcGp30N8OJNm/YVeHElvresKb7r71x/rBeO+fKuet0/XC6GcmXmMBXX38dY3E78/TT5FGzHmy/ffexVpbEJdNP0f99P//MM0nFm9bmxFuqmhOJNy2nR6G89MLz0YcxVV2p0nV62VkP4uXVH+VrjbUoaKd/FE889mhS8aZtav+efuKJ6GaSZP144cUXo8nKcMMNN4xeewNr9V0rKt40/oknn4wmpyMmNLNy0an2XDq/eNO2VDwlc8su02Bt8+ZRkegvt+qqq8h/b2ja/8svvTSpeNN69QtUd1uqtdG5nXfaKaV407y6xvS9d0a4YmmJZc2cD96JxJu2rzvSn3r8cVHrqTqdpcBBAAIQSESgIGvgEnWmVOPV6vXk00/JIQcdHB3CuubwXv1cecUV1pI1w2xOmGgsYmM/GSdPPfWUzJ4zJ5o3nYBa3vQIEuemTJkiTz3zrNko8Zx0NEJi6622llPNFKEeVZKO0/9p6FTpE08+ZS11+qP3f1dfZXd1ankVcWpZC2o9nloXbrr5VjNd+qosNDtzDz/sMDntn6dELVB77L6bWTt4cZPdut6xqFWworLCRqmYdf9rufrf18iYTxqntaZNm27zPP7oI9EpKI3QDSVPmvE++/xzxuq0oTm/bi/7Y69pKnxVxA3cdz8zpTVJo+K624xV6LBDD422rWM49vgTmuQ979xB0TgVNkNvv8Neb77ZZjGWN03TaeSnn33OTosdsP9+5iDn/eyUqhZQUVFfH5HzLrgwWl/QAZ22u/3Ou+SFF1+w7erO6WTucjOluN2228hvv/8uw4c/avr+jKiFUZ2O7+Yb/xt9jnQa2et0Gv3AAxqstBqv1sOXXn5JnjB/E+b/vTJgwLZyrJkWVjGjz+h9DzRYtvW4GhWD7p4rtxHvvCPPmo1CEyZMkO1Mui4r6Nq1q23uafN8qCtG3h+PHm2m7e+T0cZfc801zFT3NdH/POi4TzrhBLn40svkQLM5aLnluthx3Gss+no0kTq1MN548802rP/Mn/9XNEwAAhAoHwIIuIDutYqIVlWt7Zog9yPjqtYvZRVEThSddcbpouu2LvjXv+w0i8uXyN/bTFet3Lt3NPmbb7+VAw8+JCp2VBzqdJVaeV587lnRabZU7rwLLohZe/bW22/bA4bffuP1qKjaZeedAxFwOkW51z77mnVKU6Ld+t9dd8lvv02NWt6Umf7Y6lqgRM4rrJypW/NONfW4nbyurK4TXHuttdylnd7dz0xRazl1uj5LP0ccfrhceH7DdKGKuKvNtOPhRx4VLecPzDNrvHStlVuDt5GxwKl10buGTo822WTjjaNFdUx///23vb76ysFRvtqXU08/Q957//1o3ptvHSJ33XOPvGbW5um6MnW6Rk2n5b38ogWaGVABtefAfaICzLsGK1HVuo5Pp2T9FjfNP8oci3PsCSfK4480TDPqfVWR8t1331tr9CFmqto5FYp7mKleb5u67m/YsOFyt7G86bpJ9zxcZpYWuL8r5Xa2OVZDn1nndFpTN9Ncf+019j9M/7nxJptUbLyfMUL90ssvd92Wb7/9zvxt7CPvjng7KtA2XvLs6LOmH3V/L2p4fjQ8b978Js+7xuMgAIHmEVDLv/uNaF5N+SnNFGqAnC8z1rZddt9D9Dw3XeuS7EFQa9pjwx+Wgw48MGUPjj7qyGiev8zif694iyaYgFpBvv7mG29U3LBaDONtHJg+fboVJ65QvOk1l5aJP9GI1XjiQzl5rT077hhrrcmkDX/ek05stIotWLhQ9jec492PYQ8/bFi8Fi2uZ8ulmoZ21jQtpOJNLXJep1PoTmxo/PU3NG4k8YprFWVe8ebqUFG1l1nT5BVIKvpz4S646KKoeMukfm/f/OVU4HoFrW5cUadH6Hi5HGS4ecWbq0cX6R9grNl6rI463ezgrE96fcedd8aIN41Tp/dXLZVqvVKnU7jFxnu4sQrHc7qBwbmePVKve3N58SEAgfIlgAUu4HuvQuVCY1lzTn9ENjLWChVDG2ywvrXCeX/E/nXhBXZKJN4PmavD+4WuO87iCRGXt7n+z7/8Yqd+tZ527ds1t7qU5WcZa87yS6Z9dXdhUK7X8o2HnequxmSC47HHnzBTlbvYpvXerN6nT1IhrNPKKqR1V6O6Qw852Jzb95AN6z8DPQvKf/5louhHXb9NNrW++0ensBM5u9Pw1ynRafPV+6yeKGuz4n/7/besy+s0uL4hoFvXbmZjRwfDZIHMmDHd7AB+PYa3e97X8lhElZ/fapqoIxtvvElMku5QTccVI+9E/f7arKN1Tq0AOAhAAAKpCCDgUhFqZrr+SLnpTa1Kp8XuvP326NosteAcctCBolNniVybNm2iSR99PDoazkWgurrxWJNc1O+vs7YmNzuQ25lXkTn3wQeJp2U1zyfjxllR7IRGnxQCTsuodUgFjDoVi/rRNXZ6tIa+Bs25oeb1R86tsnLj7mG1lqqISebGm12Nbt3jsssukyxrXtN0+vjeu++KGad2QN8SsMIKvRJu7Oi6XMP6NM37ozkqJV3X27P2U62T6a4fLSXeboo9XSbkgwAEgiegvwG5NJAE3WP+qxc00RT1/fnnLDnokENjjjhYx7yhIZnTKU/n1jBnZuFSE/AyW9kjnOKV1Ok5J940Xd+OkcrpZgbvH/qp//ynLaJnzTmnAk2P5HBu9uzGjSvpbDbpZdZNOqcbP+I5Pbctn07Xcw574P4Y8aas9QgZ/ejRKoncggWNgnW5BEdpxCsby61NzL2Kl9/FxZZLvbknPd4hVz0+BCAAgYISyO+3f0GHmtvGdR2UHo+QjtPpvL+W7NrT/G1S7BydYw71da5fv9jpJBePH0vALf7W2E37xU5dxuYU2WOPPWKi0llH6DYzuIK6aWKVlXvHHPPyqDkSwuu+/+H76KVOk228UcPZbNFIX2DNJYe4arSuT1TnP5tv5ZVXtvH+f7zi0p/WnOujjzoqukZQ2zj9zLPseYV6/p9+9Fy8Qw8/ImYNnGvvV88mlh7du6ctxLzcVGjrZpd0nLdctry1nYgZp3Mr9Gqcmndx+BCAAAQKQQABFwB1PYJD32qgxyPoIau9evVKWqsuyvau90q1Fui11xsX2etO1tNPa7D2xGvEnUwfL62lxnXo0KHJ0Ea8+040TqchEx0aq1Pap5x8UjSv7rBUK2k6zruZoV27tnLXnY1nlqlI14NovU7fclHjmTLWHZNq0YrnzjtnUIyV65lnn7XZtH/eOvbaY/d4xWMW/cfNkGXk2mv1jZbUtx/oUR5+97l5w0a8M8y8a9dUUN16c8NOUX95vdb3BrvNJO+8OzJmzLpTOBE3PTjZrX8Mgrf2ZeqS9xlruP+m/dVr4rybLJokBhzhnaIPuGqqg0BZE/DOxJQCCARcAHfJezK87np79aUXRX+AVzUbGPxuT/ODq28G8LoHhz3kvWwSvt3suvNaXk4+8SS55OKLYkSgHl2hb4MIaudok04UWYR3U8IeuzcVMTffMiTGCnT5ZZea89X2jxmFiuEXzTli3h9EPZ8rXec2M7j87q0Leq27S733TON0Z+Yr5hw85/RZee7pp2Puo36BnHXmGaKWLud0vZweP+HcZM9rlPRYjk379XNJ1ldroNaRC/f1N99Gq9VXoqlw9Tt9Bp348qZ9ZjaTeF+P1XC22w0xYkzHr6+l02NI9Kw/FXp6r19+5eVoVXoYrh6X445ZcQlqBX/DvIP4BZOmIi4o3mPNK+Kc07/pf57cOE2u8focvWz+5r0ubMYRpKsxz45zG260oQviQwACZUyATQwB3PzDjzzCWl/0B02d/ujoD7B+1FoybdofNr6zeY+nf+2THueRygKnC7f16JAnzXs33Q+jHhqsHz0iQ38s/PXaBlvwP/PN+z110bw6fbPBO2+9aQ8kVuvn/fc/aN9Reow5YPd+895P3SiiwmDw5ZfKpUb4/vHHH/Ydmm4XqcP0pBFT3t2kLj6Z793M4M133ZKjQ7xxGv7XxZeIrrXaaMn0qVoHP3hvpH1H6iJz1lf37t2i58Rpfj1mZd/9D9Bg1OnBv6eaA4TV6bOm79rU3c+zzLtdV1qpd8JXpEUraEbgSXPWoB6Tok6fufeMBU53Ro/79DNzeG876WfOMNMDrBO5/Q88SF4xYsdZoHfZeSfZeacdRc8yrKutM8d+dI2OX9nceftt9j2uejTI8kaUufP19D5r2zqVrTuZdae2s8rpmzUeN2/g2MIcbh0E72fNhhXvUTHKXnce//rrr9LdtOtfQ5lo7M2Jnzx5kp2i1zqU3ehRH8r3339v7nUn+ennn5K++qw57VIWAhAoXgJY4AK4N7p4e5vtt7dvNfCvPaqqqrRTqvqD4xVZmk9fQJ3OO0C1ixN+/FEONrseVRB6nVqPvPV601py+KWXGy0yOk49gV8tUWoNWXbZhuNI9KXmxxx3fIwlTsWc3gu/eNNDkK8YfGXGyPybGbQCFeSTJ/+asK4jjznWvJHjk5h0FaP63ksVZM6peNM3Q+juVq9Ti+wbb77pjbJjUuG0tHkrRy6d7gB157NpO/rsbbnFFlbUHX/ssUnFm+ZXwbXHnnvF7CRVca1WNbVgesevh10PvvIqLWbd0cceJ+PMjmGv0/fS9jbvBnbiTdP0PzwXXHhRNFtzeethu5cPbuyHVqz3S3lrv7X/uXYPPjQspgl9fvU/Aauttqp95mMSuYAABMqCQOOvRVkMN7eDHHzVVUZkHW5/ZLy7IL2t6s5EfZOC7kR94MEHvUkxYe8UoUvQ0+z3MG9l0FfpeKfnVAzq7r+7zQn+77z7rsue0I9Xt8tcXb3YBTP2a2sbd8t6CyeK1zzeA1+9ZVKFr73+BvMKqjdidoK6Mgs9p9bry9p1Ub2yi+dUkKiQHnzV1fGSU8apIPHXfevQoSnLqRjRtweo2PA7vZ8qVPbex7y9wifeXF59E4FaDN0rrFy8+iog3ZsIvPHxwt4T/uOlx4tTa5i+1F2tv36nolMPKF68uPE5Wrz475hsesadiriR773X5P7r2HWdn77Efrc994yZctVKVIzp4cvxuCmLt0e8I1tsvXWTN4g0l/dT5lV5KvBnzmy6Q1nHo/9R8DrvxgdvfCLe3gOtvfldeIyZxr3+P/81/4Fr+jfmZe3y40MAAtkRyMd/yLLrWdNSoQMOOKBxi5VJ1y9Q51w4nu+N07D/o3VonIoF5+vCZr1W3330B3zB37FWJdd+qftq6VnF7BLsYaZZ1IKW6kDZTMer1oou5ggMt0NRy+vbHdxrnvSHXF/T05KdWl7+sfbadupt8eJqewBvokORdb2WvmRep+L++mu+FdK//94wvd0cRiNHjDD3oWH6XAXdZltulVF1akHq23dNO9Wrb6347rvv4v5QJ6pUp9Q2MzszZ5ppSBWs2YriRPUni9czCvV1YhUVYdP2+JRn2/nr0i/LVVZZ2VrRZpvd1p+Z/uv3RTpOLXZ91+xrX1Om4073LLXm8tZlDJv172+WM1TKx6PHxBXR6fQ/mzzKa/U+q0nv3g27jydO/MUe35JNXZSBAAREQpFqa/nX39OKigqrUfTvzH00XsPOubBL13hvnPc6WVjTnHPl3XW6ft4FnBNu6usPjfoLF9el21/yJSGg04Mff/hBdEpVp9nUUoPLHQFd56gbVpy707zDc8jQ290lPgQgAAEIFDGBUhZwgU6hOiucV6Q5oebEmktzlrl0/7ddxPc/b13T40c++2Ss2TBxR8yL2rUDuiZnuNmF6l0P99bbI/LWt3JrSP9XNtC8iP2cs8+KDl2nwW67PfbokGgiAQhAAAIQKHoC2VrD8jUwN6OpmiqtXahOZHlFlxNr3jgdgIv3h/M1uJbczhWXXWYXa2+x+eaiH2U/f/5fZuqtwhzn0C5qxlUGOq36ijlSARcsAV00/6HZNeo1n7sWbh1ym70n7hofAhCAAAQg0BwCTlOprwYwr6vUSHUqBtS5zBp2cS7e+a6M8zUel3sCemSB16kVKN6uQ11UffiRR6W9lshbJ+HUBJS73+ni+Ycejt0p6M/DNQQgAAEIQCAVAdVWqr/0k0xnVfoXPCfLnKpR0nNLYLsBO9gXhZ9q3hyw6mqrSUfzBgJ3fIKeITZr9ix54omn5N770z+MNrc9bnm1uz8otcBpeK4Ry3fdfS/ireXdakYEAQiUIQH9bs+3DkpXsPlvR2jgwIExW768HY8X1jgX78LO18r9YfeDp75+vGvgXHhRdYP1z985riFQrAQK8UderCzoFwQgAIFSJeDfxOD+c66+fnKxC9XpJKeLtJ1sXFpr4LKpmDIQaMkE9A8QBwEIQAACEEhFwAk2zedfx5aqbLJ0BFwyOqRBAAIQgAAEIACBDAk40eZmIbO1siVrFgGXjA5pEIAABCAAAQiUDYFshZYKNifW3AxNtnWlCxsBly4p8kEAAhCAAAQgAAFDwFnYnHBzYs35+YCEgMsHZdqAAAQgAAEIQKDoCDhrWTodUwubOvWdUHN+OuWDzoOAC5oo9UEAAhCAAAQgUDIEEok4jddNB970Qgo2P1AEnJ8I1xCAAAQgAAEIlB0Bt4ZNz8d1Qs1/jEgxQUHAFdPdoC8QgAAEIAABCOSNgIo291HRFu9NO3nrTIYNNX0nUIYVkB0CEIAABCAAAQiUIgHvuWxuylQFXSk4LHClcJfoIwQgAAEIQAACOSXgXeuW04YCqhwLXEAgqQYCEIAABCAAgdIkoOLNa3krBTGHgCvNZ41eQwACEIAABCAQEAHvVKpWiYALCCzVQAACEIAABCAAgVwQ8B8Vkos2clEnFrhcUKVOCEAAAhCAAARKgoB36tTb4WK3wiHgvHeLMAQgAAEIQAACZUMgkXgrBQAFF3D+eedSgEYfIQABCEAAAhAofQKprGyp0gtJoKACrpSVbyFvGm1DAAIQgAAEIJB7Agi4OIxVvBUzmDhdJgoCEIAABCAAgTIjUKxapSAWOIWB9a3M/gIYLgQgAAEIQKAECSDgltw0FW6ItxJ8gukyBCAAAQhAAAJFQyCvFjimTYvmvtMRCEAAAhCAAATSJFCMVri8CTimTdN8SshWUAKrrNxbbr35Zumz2mq2H3vvtZf868ILCtonGocABCAAAQj4CeRFwKl4a8nHhay66iry9Refyztvv+XnK/fdc7dNO+Sgg5ukEVF8BM4640wZsP12cs6gs23nrrjsUjnowAOLr6P0CAIQgAAE8kqg2KxwlbkefUsXb15+VZVNcbq41m1ae7MSLlICtwwdIuGKsAwZOrRIe0i3IAABCECgEATKSsCVk3jL9GEKhUJJj1FJlV5pxGJtbW2TZpOVS5bmKvLn8V+7fOonS/PmSzdvojG5utJpz5/Hf+3qcr4//aeffpbTjBUOBwEIQAACEChmAjmdQm3J06bZ3tRzzj5LPnhvpHz1+XgZP26cPPLwMFlxxRVsdZ2WXlqeeOxR+fzTcfLFZ5/KSy88L7169bJpvVdaycY/+fhj8sZrr9rwwL33lvvvvceGr/n3v+WzT8baejW9c+dlbbm111pLnn7ySduWtjl61Idyw3XXRrvvyt960002z5fjP7PTvptvtpnNq2U+fP89WWP1PtEyG26wge2D5h0/7hObPxyO/yhp+6+9/LIdj47rmaeekm7dukXr0rrHfDRKhtxys61r6K23RNNcIFl7J55wgh3/vXffJWM//tiO/83XXrNr2F5/9RXRPioX7xT2JRdfJKPef9/m1fQXnn1Wtth8c9ucq+/00/7pmseHAAQgAAEIWALFZIWL/6sbwI2KZx0KoNqSrmLjjTaSY485xlrOnn7mWZk+Y7oRGn1kwYIF1pr10osviAqeiRMnyTffficr9+4tzxrB065dW6morBC1UK3Vt6+0ad1G3nv/A5kyZYp0WKqDjd9xhwHy7siRtq7le/aUobc0CKGZf/5p6llJpkydIh+OGiVVVVWy2667yo477GBZuvLbbbetjDMCq7a2Tjbt10/u/t+d8tvvv8u0adNEheXQW4fY/Lq4X0Vfzx495NNPPzVjmGHzP/7oI03uja4NHD5smKywQi87Hh2XCsGXnn9ellpqKZu/Xdu20r59eyugRn30kYwZ80lMPanaUzbKpf+mm8qPP06QuXPnSc+ePeS5Z56W9u3ayVdffSWtWrWSi/91oWWslffo3sO2MXrMGPlhwo+i/bz6ysE2bumODTyVCw4CEIAABCDgJVBMAq7poi1vT7MMq3grpkFmOYzMi5lpUb8LeSxTXbt2tcn15iy8n3/5RR548AHjT7RxW2+1pSzTqZP89tvvctHFl9i4S42laN1115Vddt5ZPv/iCxunAmXbAQOanKV36ulniAoSFYBqxVt11VVtfhVgG27Sz4oYFW+77LyTXHnFFXLUkUfIm281bro4/sSTbHm1EKrIHP/553LYEUda8TjGCKuuXZez9R1zzNFWML32+hty733327gH7rvHCksVUwsXLrJx+s8xRx1tBGOlPDx8uFxz3fU2/p67/ieb9e8v+wwcKMMeftjG6bOy594DZepvv9lr7z+p2nN5n3rmGbn8isFWIKqVT/ux5Tbb2uSRI0ZIly6dZd111rEclZW6ZZZZRmbPnm0tonpv3P2xifwDAQhAAAIQiENAf7N0+U2hXeACTqdNy028TZ78q72PaqlSa5Ja1JxbvU/D1ON3339vrEtj5JCDDxKdEjzvnEH2owLi8COPik7hqfXoyccfdcWtv/HGG0cF3KzZs5qIN81UXV1t8379zTfWD4UajKtqXbr7zjutONEHzuVr3Tp2U4WL//a77235mpoa66sQ0jQVf+r+sdba1lchqB+v679pfxnxzjvRKBVM6p574YVo3BtvvmUF3Kb9NokKOH1m4ok3LZSqPVdx7ZL+fv/DBBtVXx9xSTJt+jQr4NyYrxo8WHbfbVfRaz2b0P0hqjUQBwEIQAACEEhGoFg0TqBTqPpDXI5vWVCxo0JMhcDZZzVYd/Tmb7/ddlbQ6c0ePXq0ZXOEsUptYixQp5x6qowZO9ZagQaddZad3tQykyZNlrXXXS/m868lFjlNz9T95/rr7Zqz2++4U/baZx955NFYcZhpfV9987Ut8sSTT8X0UfvsFW+a6Ztvv7V5d95xR+vrP2ppVPfJuE+tn+qfTNpLVZemr2NE5b77DDQWuoVy8GGHm/twmsyZOzedouSBAAQgAAEIWALFIOICs8CpcCtH8eae5dtuv1N0cbwult9rz71kkbFc6bSduhdeeslaJdXypufC2bVeYz+RpZfuZNMnTZ4k73/woRUSK620ol30//GY0bLN1lvL72YdmlrosnV/L2qY0lxzjTVk/l9/GQG1dbZV2XL33/+A7Ln77nLA/vvJmmusLj/9/IvsvNNOMtysgbv5lltj6n5w2EPW0nX8ccdZ4aQWLp0SVovec889F5M30UUm7SWqwxuvQltda7OOUC2Ea/VdU5Zq37Aez5uPMAQgAAEIQKCYCQRigVMlWs7iTW/wo2Z36A3/vdFOn+rieRVvixcvlufMgn1nQdOdmrPnzLHCTKdQdUG/rjW7dehtVuDtYYSfWuB69VpeDthvP1muSxeZYTYJaDldN6fOoI5x9dIQkYj/ZWZd2F9GuA0YsL1ceP550rFjR1ve/e8hUflE9U348Uc57oQTZd68+VaM7TNwb7vObcGChTH90otvzUYMtXBpXt1koOJtxsyZsv9BB6Vt9UrZ3hIgbhyuE258eu3Y1RoLsW78eOHFl6Rt2zb2DQu777a7eXbrbLGIZ9o10fhd/fgQgAAEIFC+BLy/MYWiEBo4cGCMJPB2Kl5Y41y8+vpD5zYtuDSXroPSdJdPw/rRqVY33ap+dV3hFwMGeQN0LVwrs75q+vTpcavVXZOrrrKytV7F262r6810J+nESZPils8mUsXgQmON867Py6Yeb5lU4/TmVeGo97o57WfSnrfteGEVxbqTdsrUqfGSiYMABCAAgTIg8PeCuXb5k/4muI8uh9Kw+t6Pahm9VufiNZ+79vrJwraA5x9XpycqrWCzBFwi8VbuAi4t8mSCAAQgAAEIQKCgBEpZwGU9haoiLZ71qKB3gsYhAAEIQAACEIBAngh4DVZ5ajLaTFYCDvEW5UcAAhCAAAQgAAEI5J1AxrtQVbzpWiZcI4FO5vR+HAQgAAEIQKDcCMwxm9TK2akmynYNW3O5ZWyBQ7w1FznlIQABCEAAAhCAQPMIZCTg3G7T5jVJaQhAAAIQgAAEINAyCBRqHVzaAg7x1jIeNEYBAQhAAAIQgECwBAoh4tIScDptWojOBYuX2iAAAQhAAAIQgEDLIJBSwKl40/PecBCAAAQgAAEIQAACTQkUwsiVVMC5Nyc07SoxEIAABCAAAQhAAAKOQL5FXEIBh3hztwQfAhCAAAQgAAEIJCdQFAJOxRvHhSS/UaRCAAIQgAAEIAABL4F8irgmFjjEm/dWEIYABCAAAQhAAALpESiYgNOGVcDhIAABCEAAAhCAAASKl0DUAqfijZfTF++NomcQgAAEIAABCBQ/gXxZ4ayAQ7wV/wNBDyEAAQhAAAIQKH4CeRVwbFgo/geCHkIAAhCAAAQgUBoE8iHiwrwiqzQeBnoJAQhAAAIQgEBpEMiLgMtHI6WBm15CAAIQgAAEIACB0iAQ3cRQGt2llxCAAAQgAAEIQKD4CeTaQIaAK/5ngB5CAAIQgAAEIFBiBBBwJXbD6C4EIAABCEAAAhBQArkUcVjgeMYgAAEIQAACEIBADggg4HIAlSohAAEIQAACEIBArgnkSsRhgcv1naN+CEAAAhCAAAQgEDABBFzAQKkOAhCAAAQgAAEIOAJY4BwJfAhAAAIQgAAEIFBCBHIh4rDAldADQFchAAEIQAACECg9Agi40rtn9BgCEIAABCAAAQgEfqQIFjgeKghAAAIQgAAEIFBiBBBwJXbD6C4EIAABCEAAAqVHIOhpVARc6T0D9BgCEIAABCAAgRIkEKSIQ8CV4ANAlyEAAQhAAAIQKD0CCLjSu2f0GAIQgAAEIAABCAS2mQELHA8TBCAAAQhAAAIQKDECCLgSu2F0FwIQgAAEIACB0iUQ1DQqAq50nwF6DgEIQAACEIBACRIIQsQh4ErwxtNlCEAAAhCAAARKl0AQAq6ydIdfPD0/99xBxdMZegIBCEAAAhDIE4FLLhucp5ZaXjMq4kKhUNYDQ8Blja6xIA9wIwtCEIAABCAAAQikJtBcAccUamrG5IAABCAAAQhAAAJFRQABV1S3g85AAAIQgAAEIFAuBJqzFg4BVy5PCeOEAAQgAAEIQKCoCCDgiup20BkIQAACEIAABCCQHoFsRRwWuPT4kgsCEIAABCAAAQgETgABFzhSKoQABCAAAQhAAALFSQALXHHeF3oFAQhAAAIQgECZEMjGCoeAK5OHg2FCAAIQgAAEIFCcBBBwxXlf6BUEIAABCEAAAhBISiBTEYcFLilOEiEAAQhAAAIQgEDuCSDgcs+YFiAAAQhAAAIQgEBBCWCBKyh+GocABCAAAQhAAAINBDKxwiHgeGogAAEIQAACEIBAERBAwBXBTaALEIAABCAAAQhAIFMC6Yo4LHCZkiU/BCAAAQhAAAIQyBEBBFyOwFItBCAAAQhAAAIQyCWBdEQcFrhc3gHqhgAEIAABCEAAAjkggIDLAVSqhAAEIAABCEAAAtkSwAKXLTnKQQACEIAABCAAgQISSCXisMAV8ObQNAQgAAEIQAACEIhHAAEXjwpxEIAABCAAAQhAoMgJJBNxWOCK/ObRPQhAAAIQgAAEIOAngIDzE+EaAhCAAAQgAAEIFAEBLHBFcBPoAgQgAAEIQAACEMiUQCIRhwUuU5LkhwAEIAABCEAAAnkigIDLE2iagQAEIAABCEAAAkESiCfisMAFSbgM6mrVqpUcf+yxctihh5bBaBkiBCAAAQhAoDgJVBZnt0qvV+PHjZOqqkacqpbnz58vr73+hgy+6qrSG1CCHq+wQi85+6wz5ZeJE2X4I48kyEU0BCAAAQhAAAJBEVBNEQqFYqprVBwx0VxkSqCiosGY+f0PE2zRLp07S+fOy8qBB+wvoXBIrhh8ZaZVkh8CEIAABCAAAQhYAn4RxxRqgA+Gwt13//3tZ+vttpPb77jD1r7dNts2acWvpL0ZkqV582UbTqf+ykq0fbZ8KQcBCEAAAhAImoBqDK9DwHlpBBx+7vkXbI1LL7209S+5+CIZ9f778tXn4+XL8Z/JC88+K1tsvrlNU1F11513yCejP7bp6v/n+uvNtGyV9F5pJXn6ySfl80/H2bQP339PTjzhBDnvnEE27oD99rN1XHbJxfb6iMMPt9cXXXC+vd51l53t9SEHHSwjR4yI1n/70CFRk6zWp/XfetNNMubjj2w4HA5Lx44dZfiwh+SzT8bK+HGfyNWDB9u6+AcCEIAABCAAgfwS8Io4BFzA7Hstv7zoZ8sttpAht95qa58ydYr1e3TvYf3RY8bIDxN+lFVXXUWuvrJBEP3rwgusmJswYYK8+trr8vfixdK375pSU1MjQ265RdZcY3Ubr2Vbm40E2sZ7738gainbddddbL077bijvd5n4EB7ve0229jrd94daaZyDxAVkJ06LS1jP/lE/v77b9lm663liccetXnbtWtr8w4YsL38/tvv8tHHH9v4l55/XtZfbz1ZsGCBTJo0WdZdd10bzz8QgAAEIAABCOSXgFfAMU8WIHu1or3+6isxNS42Quzc88+3caeefob1l1lmGZk9e7Z88N5I6dq1a/SjibW1tTLqo1Hy72uusXk0rkPHDupZMffIo4/KKaeeJtXV1UviauUfa68t3bp1E61Xb26f1Va1lrvljcibNm2aFWvHHXuMzX/k0cfI5198IWpde3/ku7JW3762nE00/3xshNtxJ55kL7feaiu7ju/XX6fILrvvbuM23GADGfbgAzbMPxCAAAQgAAEIFIYAAi5g7g8PH25rVCH26WefWSuZWtHUXWWmH3ffbVdp3bq1RCKR6PRlu7Zt5Yb//FfWXWcd2XDDDe1H83/z7bdy0CGHylVXXy03XHed7LvPQPtRkfb4E0/IVf/+P/npp59kzTXXkDNOO1WLyFPPPCM6pXrZJZfY+j8c9ZGN79a1mxGAtVa8aYS2//XXX1urnwo15yZOmuSCxorYML070ghN5+bOm+uC+BCAAAQgAAEI5JmAagA1GDGFGiB4hXrNddfbzw3/vVHeHvGOtZppE+sYcaYCbOHChXLwYYdbK9qcuY1iaMrUqbLdDjvKttsPkIsuvlimT59urWO77rKLrWfDTfrJXvvsI1qvisODDzpI9Ey2t95+245g7732kkWLFsn1N9xgr/cZuLf1n3r6aevPnDnTHnPSZ7XV7LX+s+Yaa9rwqFGjonHewNhPxtnLzTffIhrdtm27aJgABCAAAQhAAAL5JaBaQx0WuDxx1ylTda1bt7GWtrXM+ral2i8Vbf2sM8+Qw83huC+/+qpMmTLV5tPEn37+SZ58/DHp0qWLPG/Wo4XM1GdFRYUVhjqNqgLttFP/adX4F19+aQTiIvnNrGHr2bOHzaPTpeoeNme26aYHrev9Dz6w4k2POdHz3GYYcRfPvfPuu3bt2yor95a3Xn9dZsyYboVovLzEQQACEIAABCCQHwIq4hBw+WFtRNkUeeHFl2TPPXYX3bCg05mRSJ1pvVIi9RH5889Ztif777uv9XWK88Fhw+S7776Xn3/+2QiuNeSE44+3abqu7vwLL7JhFV9qyetkdro+ZwSeupHvjxTdcfrdd9/Za/3ngQcflI4dlpKjjzpKtjdHnOjN1ynaw444siHPEkVfL43blNXSt7+x9N139z3So0d36d69m+2Pbq7AQQACEIAABCBQGAL6Gx7afffdG3+xl/TDmef00oXj+d44DXs/bkgqRDReffepq6sT/ei1+tV1IZe9xfu6eaBnjx6iU6bx3FJLLWU2JHQ1a9t+bpKsGx503ls3JjTH6YYHnaJ19y+duvSsgeCtAABAAElEQVQ4ExV0mZRJp17yQAACEIAABApF4O8FcxvWk5nfZv191o9dX7bE17D76O+fhtW5OBe2kUviU4VduvNdne46XR8LXLqkAsqnojWReNMm/vrrL/uJ15yKriBcNgLQbcQIon3qgAAEIAABCECgeQTYxNA8fpSGAAQgAAEIQAACeSeAgMs7chqEAAQgAAEIQAACzSPAFGrz+NnSnZYctBtAVVQBAQhAAAItnMCcefOlpfxu6FhwhSGABa4w3GkVAhCAAAQgAAEIZE0AAZc1OgpCAAIQgAAEIACBwhBAwBWGO61CAAIQgAAEIACBrAkg4LJGR0EIQAACEIAABCBQGAIIuMJwp1UIQAACEIAABCCQNQEEXNboKAgBCEAAAhCAAAQKQwABVxjutAoBCEAAAhCAAASyJoCAyxodBSEAAQhAAAIQgEBhCCDgCsOdViEAAQhAAAIQgEDWBBBwWaOjIAQgAAEIQAACECgMAQRcYbjTKgQgAAEIQAACEMiaQGV9fb2EQqGsK6AgBCAAAQhAAAKFJ9CxY0fZdNN+0rNHd+natavt0PTp0+W33/+Q0aPHyLx58wrfSXqQFQHVavqJRCLW13BlbW2thMNh+0HIZcWVQhCAAAQgAIGCEejevZvsv99+0r9/P2nVqpXtx8yZM62/ySYbW//oo46Qjz4aLU89/bT88ce0gvWVhtMj4BVsKtriuUqN1ET9OCEXLyNxEIAABCAAAQgUF4H+xuJ28sknSrt27WzHxoz9RB555FGpqamRqqpW1lpz2GGHSD8j5LbeekvZeOMN5c4775KPjUUOVzwE0hFs/t5aAecinZDT64qKCqZWHRh8CEAAAhCAQJER2GmnHeT4446N9krF20033SIdOiwlp5x8kmywwfoyceJEueE/N9o8KuJU6A0adJbcc+998sYbb0XLEsgvATcdmsi6lk5v4m5i0Ip1alU/GsZBAAIQgAAEIFA8BPr06SNHH3VkTIfU8qbibc6cufLa62/YtN69e8t55w6S4cMfjcmrZfustlpMHBe5I+B0lVpGq6urrYW0rq6uWRorroBzQ3ANIuQcEXwIQAACEIBA4QmccsqJUlnZOImma95UHDjL21577hHtpIo4XePu1sVpgpY95Z8nRfMQCI6Aaienn/SeuI9a2zQ+KNd495PU6DqiD4Cuk2OzQxJYJEEAAhCAAAQKQEDXvOm0qX5w+SPgBJv6KtL8Gsl/HVTPklrg/I1o59Tkpxa55szb+uvlGgIQgAAEIACB9Ancccdd9rfYlejSpYu17uiaN7/TOP391jzO6e/4Hbf/z13iZ0hANZAydNa1QuiijAScG58TcirmEHKOCj4EIAABCEAgPwQmTJggDzz4UExjuttUNyx4RZyGNU7TvE7LTvjxR28U4QQEnObxCrZi0D9pTaEmGJNV9E7AqYkwV2bCRO0TDwEIQAACEChXArqLdN7cedFjRHSXqbqbbh4S/T1W8XGU2bDg0hYuXMgxImk8MCrQnHP6RlkWk85ploBzg9NB6UddMQ3O9Q8fAhCAAAQg0BIJ6HluEydNih7kq0JNP27Dgps21ak+DvJt+gQ4UabGKA2rcHNr/Z1wa1qqOGJCO+20U5MtEU6MaRdd2Pkuzl2r7w/rtTtHzkFR330UkDM/ql9dV9qv8urUsUNx3E16AQEIQAACRU9gzrz5kovfjUK8SkvHUspuwbxZ1vDkFW3esBNx6qu2cUYqv68M4sV54xNxcuUSpSeKD8QCF69yFWZusNl2Ll69xEEAAhCAAAQg0JSAvuv0zTc5nLcpmZYZkzMB53A5C5y7xocABCAAAQhAAAIQaB6BnAs41z03fequ8SEAAQhAAAIQgAAEsiOQNwHnuueEnE6v6gcHAQhAAAIQgAAEIJAZgazOgcusifi5Vci5jQzxcxALAQhAAAIQgAAEIBCPQMEEnOsMVjhHAh8CEIAABCAAAQikR6DgAi69bpILAhCAAAQgAAEIQMARQMA5EvgQgAAEIAABCECgRAgg4ErkRtFNCEAAAhCAAAQg4Agg4BwJfAhAAAIQgAAEIFAiBBBwJXKj6CYEIAABCEAAAhBwBPJ+DpxruCX55547qCUNh7FAAAIQgEAOCVxy2WBpCb8b//nPjTmkRNWpCOTsZfbasDusV313gK/z9Qw4dw5cnaAjU90o0iEAAQhAAAIQCJZAKb/MninUYJ8FaoMABCAAAQhAAAI5J4CAyzliGoAABCAAAQhAAALBEkDABcuT2iAAAQhAAAIQgEDOCSDgco6YBiAAAQhAAAIQgECwBBBwwfKkNghAAAIQgAAEIJBzAgi4nCOmAQhAAAIQgAAEIBAsAQRcsDypDQIQgAAEIAABCOScAAIu54hpAAIQgAAEIAABCARLAAEXLE9qgwAEIAABCEAAAjkngIDLOWIagAAEIAABCEAAAsESQMAFy5PaIAABCEAAAhCAQM4JIOByjpgGIAABCEAAAhCAQLAEEHDB8qQ2CEAAAhCAAAQgkHMCCLicI6YBCEAAAhCAAAQgECwBBFywPKkNAhCAAAQgAAEI5JwAAi7niGkAAhCAAAQgAAEIBEsAARcsT2qDAAQgAAEIQAACOSeAgMs5YhqAAAQgAAEIQAACwRJAwAXLk9ogAAEIQAACEIBAzgkg4HKOmAYgAAEIQAACEIBAsAQQcMHypDYIQAACEIAABCCQcwIIuJwjpgEIQAACEIAABCAQLAEEXLA8qQ0CEIAABCAAAQjknAACLueIaQACEIAABCAAAQgESwABFyxPaoMABCAAAQhAAAI5J4CAyzliGoAABCAAAQhAAALBEkDABcuT2iAAAQhAAAIQgEDOCSDgco6YBiAAAQhAAAIQgECwBBBwwfKkNghAAAIQgAAEIJBzAgi4nCOmAQhAAAIQgAAEIBAsAQRcsDypDQIQgAAEIAABCOScAAIu54hpAAIQgAAEIAABCARLAAEXLE9qgwAEIAABCEAAAjkngIDLOWIagAAEIAABCEAAAsESQMAFy5PaIAABCEAAAhCAQM4JIOByjpgGIAABCEAAAhCAQLAEEHDB8qQ2CEAAAhCAAAQgkHMCCLicI6YBCEAAAhCAAAQgECwBBFywPKkNAhCAAAQgAAEI5JwAAi7niGkAAhCAAAQgAAEIBEsAARcsT2qDAAQgAAEIQAACOSeAgMs5YhqAAAQgAAEIQAACwRJAwAXLk9ogAAEIQAACEIBAzgkg4HKOmAYgAAEIQAACEIBAsAQQcMHypDYIQAACEIAABCCQcwIIuJwjpgEIQAACEIAABCAQLAEEXLA8qQ0CEIAABCAAAQjknEBlzlsokwb+XHFvmdNjW6lr1alMRswwIQABCECgHAlUVM+RTr+9I51/faEch180Y0bABXArZq60r8xacc8AaqIKCEAAAhCAQHETUEPFn733kfpwpXSZ9Exxd7YF944p1ABu7txuWwdQC1VAAAIQgAAESocAv32FvVcIuAD417VeOoBaqAICEIAABCBQOgT47SvsvULAFZY/rUMAAhCAAAQgAIGMCSDgMkZGAQhAAAIQgAAEIFBYAgi4wvKndQhAAAIQgAAEIJAxAQRcxsgoAAEIQAACEIAABApLAAFXWP60DgEIQAACEIAABDImgIDLGBkFIAABCEAAAhCAQGEJIOAKy5/WIQABCEAAAhCAQMYEEHAZI6MABCAAAQhAAAIQKCwBBFxh+dM6BMqGwA5rdpA7Dl1RRgxaXe45YiU5casuUlURio5/teVay9tnry7rLt82GpeLwFarLSW3HrRCLqqmTghAAAJ5I4CAyxtqGoJA+RJ45uRV5U0jzo7doous1aOtHLlZZ/nf4SvJ/Fs3kKv37mnBaNz2RuSdYIRdLt2JWy8np2/fNZdNUDcEIACBnBPgZfY5R0wDEChvAnuv10n22aCTPP7JbDn47p+jMLZfo4M8fNzKsu8Gy8glz/8mV7z4m4yduEBe+3peNA8BCEAAAhCITwABF58LsRCAQEAEDt90WamvFznsnkbxplWP+H6+9Dz/i+g0asTkefGLuQG1SjUQgAAEWjYBBFzLvr+MDgIFJ/DVb4tk/42WkSP6d5YHPvqzSX9q6oxyM26zVdrLyHPXkB1v+kFGTvjLxu2ydke5+cAVpE+3NqL5Xvlyrgww06yPjJklpzwyWTZasZ18dOGacuOb08zU63KybPsKWbA4Ite//odc+fLvto5U/4y6YE1Zum2FTJ1dLdsZq2BFOCQTpi+WLa7/Tmb+VZuqOOkQgAAECkKANXAFwU6jECgfAte99ocsrq2X+4/uLbNvWt9uVLh+v16y6crtYyC0qQpba1yndg3/r9ymz1Ly8ul9pMfSVTL0nely81vTZFsjsDoasbVs+4Y8bapCtsygHbvJEJPnkuem2rYG79VTdl6rY0z9iS46m7rW6tFGtN2Th082U7hzZfVureUjI+xwEIAABIqVABa4Yr0z9AsCLYTA30a8LX3mZ3LV3svLPut3kv7G0qabFc7bqZv8NqdGjrjvFzud6h+ubnL4uyYiq17yVdQSpuvkFgzd0J9VznjsV7nzvRk2/s1v58noi/pai9/r36S3nm7Wgjrpd823tvy9H86Ub65YW9bs3kaMMU50ahcHAQhAoNgIYIErtjtCfyDQAgmoBe78p6dIn0u/kvanfyadzhovFz4zVbp2qJRXz+gTd8SrmmNF3jHr5LzTmCoG47k/FzROdY6ZuNBa4boby126bnFtJCbr85/PkZARb608x5zEZOACAhCAQIEJIOAKfANoHgLlSGDuojq5zqxTU6HUqjJkrV1+DmFj/nLr47xpkTRMYrppojlOBScOAhCAQDETQMAV892hbxBoAQT00Fw9By6eMWv5Tq3sFOWEaX83GemkP6vNhoWO0sYIPK9TYYeDAAQgUO4EWANX7k8A44dAjgmsbnaQ7mx2k864cX25y6xT03VpOnV6+nZd7Xq4l83O0iUbUWN6ctGzU+SxE1aRH/+9jlxtdpTO+7tOrtizp12XFpORCwhAAAJlSAABV4Y3nSFDIJ8Edrl1ghxgjhEZesiKcv7O3eWCXbrb5qvNNOWdI2fY40A0otan4vTg3+WWmmw3P9xx2Ir2LLmPf1kgujbOObd0rc43rRoxc6jpTLVqPTavb8Y03bKuH/gQgAAE8k0gtNNOO/m+usR8UTZGubDztYMadtfxwv40vY5EIjGfuro60Y/G10lp68gftro/3/eN9iBQkgR09nO9Xm3t7tNp8xs3HqQaTJelKmWW2ajQrlVY5t2ygT0H7vD7fklVjHQIQCDHBFZ//5gct5Db6hfMm2U2LIUkHA5b3x/Wa/dRLaNhdX4/UZw3XsPxnKsrXlqyONbAJaNDGgQgECgBNZR99usiSVe8HWXej7p8pyq7E1XLXmnOd9PvTz3zDQcBCECgnAkU3PSlFjhBRpbzM8jYIRCXQGuzeeEucxac7lKdvbDOWt807supi2S0mUrFQQACEChnAkUh4EIIuHJ+Bhk7BOIS0KM8OpoDgE/eejnZpHd7I+Jq5Za3p8uPMxbHzU8kBCAAgXIiUDABp3PJtbXpr4Epp5vCWCEAgQYCKuJuGcF0Kc8DBCAAAT+Bgtm+7NSpvzdcQwACEIAABCAAAQikJFAQAae7T9UCh4MABCAAAQhAAAIQyJxA3gWcCjesb5nfKEpAAAIQgAAEIAABRyCvAo51bw47PgQgAAEIQAACEMieQF4FnE6dtkRXsXhuSxwWY4IABCAAAQgkJMBvX0I0eUnIm4Bryevelp72Xl5uFo1AAAIQgAAEioUAv32FvRN5OUbEvi6rhVrf9PZ1mfSMhCK1MqfndlLXqlNh7yitQwACEIAABHJIoKJ6jiwz9Q1ZdsqrOWyFqlMRyLmAK5d1b51/fUH0g4MABCAAAQhAAAK5JpDzKdSWuu4t1zeG+iEAAQhAAAIQgEAiAjkVcCreODIkEXriIQABCEAAAhCAQHYEcibgOO8tuxtCKQhAAAIQgAAEIJCKQE4EnIq3mpqaVG2TDgEIQAACEIAABApGoJSXeeVEwJUykII9RTQMAQhAAAIQgEDeCehSLzU8lZoLXMCx7q3UHgH6CwEIQAACEChfAireVLuUmogLVMC19PPeyvfxZuQQgAAEIACBlk2g1CxxgQk4Va61tbUt++4yOghAAAIQgAAEWiwBFXH6KQUXmIBDvJXC7aaPEIAABCAAAQgkI1Aqs4mBCDjWvSV7FEiDAAQgAAEIQKCUCLh1ccXc52YLuFIYZDHfAPoGAQhAAAIQgEDxEXBLw4p1SrVZ70LVwXHeW/E9dPQIAhCAAAQgAIFgCDgBFw432+YVTIeW1NKs3iDeAr0XVAYBCEAAAhCAQBESUBHnhFyxdC9rAVeKZ6YUC3T6AQEIQAACEIBAaRFQAVdMGzazEnA6CBVwOAhAAAIQgAAEIFAuBNy6OPUL7TJeA8e6t/i3rHar46Vu4/1FOnSOn4FYCEAAAhCAQEsgMP9PqRj7hFR+cF9LGE1WY1BLXEVFhf1kVUEAhTIWcKx7a0q9ZqezRZbuKVXDTpbwzIlNMxADAQhAAAIQaCEEIl16S92OZ0nNtidJ1bv/ayGjynwYbk2cCrlCuIymUFVxFoPZsBCgkrVZt97uUvHKNYi3ZJBIgwAEIACBFkFADRUVr94gkfX3bBHjac4gCrmkLG0BV8hONgduPsqG2i4t4QWz8tEUbUAAAhCAAAQKTiA8Z6pIx24F70cxdEANW4XY2JmWgNPOFdPOi2K4YfQBAhCAAAQgAAEIKAGnk/I5S5mWgGPdGw8oBCAAAQhAAAIQSE5AjV1ubVzynM1PTSngWPfWfMjUAAEIQAACEIBAeRDQ6dR8HLWWVMCx7q08HjZGCQEIQAACEIBAcATyoZ8SCjidx2XqNLibSU0QgAAEIAABCJQPARVxuZzFTCjgEG/l85AxUghAAAIQgAAEgifgNjfkYl1cXAGXS8UYPB5qhAAEIAABCEAAAsVLIBfr4poIuHzM2xYvYnoGAQhAAAIQgAAEgicQtL6KeZUW696Cv2HUCIFCEIj03lginVdM2nTo9++l4revk+bJJrF27Z0kVNVWKsY/n03xZpWpPnGYhL9+Wyo/fKBZ9aQqHFl2RYmsvLFUfPaChCK10eyRXutK/XK9bXw00gQiK28i9a3aScX3I73RhCEAgTIjoCJOtVZlZYz8yopCTA2se8uKIYUgUHQE6tbZVerW3iHar5ARD+rqqxdG4yo/HCYSsICr79RT6vb7d0Mbs36VismfRtsLMlBf1UYiq24moZ/HSLh6QbRqFVbhcMzXWjQtyED9MstL3e4XSfi3byX0+7fRqmv2+JdI11UlNPlzCf85KRpfu8fFIr9/h4CLEiEAgfIl4NbF6TtUQ6FQ1iCi33Sse8uaIQUhUHQEql68SvTjXPUpT4rM/lVaPzbIReXEr9vkwAaRWFstkf4H507AdVtdag+8XqqG7iMyq1HA5WRQcSoNT/3KxkZ6rSPhJQKuvm0nK940IdJ3gIQ/uK8hT0WVqOCr+PgRe80/EIAABFTE6bq4cDgsKuSycXYNXNDzstl0hDIQgEBpE6gPhaV2o32kctyzUvnJ0xJZczuJtGpf2oNK0PvQ3/Olfv4MqV9h3WiOujW2kvq6Wgl/+65E1hoQjZfua9pw+NcvGuMIQQACEDAEmqO/Kln3xjMEgfIloFN+9W06SGj2bxLpd5CEv3lT6tsZS5JZw9bqoZNjwOj6stC0H6Xq+cEx8e4issY2olO14XHPiNRVS93Wx0lkgz0lPPoxl0Ua2uso4bl/WLEnFa0k/NNHUvXMxRKqXhTNV7fWDlK32eFSv/zapm9Tzbq2N6RixB0SknqpPu4Bqe+6ms1bfeJwswatTipf+j+p+OYtG1fftoNUH3KLRFbpJ6GaRaY/z0rV20OiddebWmoHnCoRs1avvsNyEv71c6kccbuEpzQIrMjSPaTmpOFS8dqNUrf54daqVnXzHhKeNy1ahwZUkOmaN+cips/hSZ9K+KvXpPaAaw3XjhL6e55EVljHZglNnyD14Qqp22g/iay2hdT33shyCn/9llR8cL9h8rvp901ZsXd9wIcABEqPgIo4dZla4sKseyu9m02PIRAUgfqluki9ER4qJiqfvVQqRj0s4Qkf2utI55WizURWWF/qjSUp/MMH0Th/oG7Tg0Wm/yThWZOtQAtN/VrqNj4wJltDewOMSOworR47RypGD5f61beSmv2ujebT9Xu1+18j8udkqXz8XAmPf0nqtjxGavZtWFtX8fp/jZi7zeavMiKr6skLjHAaHy0f6X+ouR4nVY+eZdbIjZbIFkdKrfZtiavdZ7DU9T9Mwt+9I1UvXCnSpr1UH/U/iXTr05DDTHmKEbV1u18oFV+9IZUPnyqhBX+64lE//Ktps1MPqTcitN6su4us3M8I4LeMIB1l89StvrX161dcX8QIXxWa+qnvvYkRpVOk8snzpeKtIUZI7iC1O55h82bLPtopAhCAQEkSUBGnS9kycWG1wOEgAIEyJmCmA6uGnSIVRtCEZ/wkFV+8bKcC6zbaNwrFCiCTT0VPPBfp2E3qV9rQTp269PDYp0Q6ryCR7mu4qAbfWvGulPDET6TqraG2TrWWuW+iGiOcQl+8Kq2eu8wu+q98/x6pfOoiqf/HjhIxlreKKV9K2IhDdaHJ4yT8y1gjsGY21G3+VRFaOeohqTDircqUE9PvyBrb2nS7e9QIxMpXzfq5N26Sii9flap7jraWurptTojWoQEViZVmHVuF2SgRMlOjfhc2GxXU1ffsKxEjgEMVlRI2u0zVkhgyfYystb1Nr1v+HxKe/JkN6z9VT54nVa/dIBU/jpLKT5811rcHG0S02ZiRDftoxQQgAIGSJuBmRNPVZdFNDCU9ajoPAQhkTSA045eY6UsVIBXfvi11Gw6UyjduNtaopYzAMIvyjZAK1TeY+v2NRTbez0bVrbmt1OnUoDozDauubhMzNfuisXQtcSHPTliNCn33noTMejlRK9bS3ew0bMVnz7ns1g9/87YVlXocR3j6jzFpTS4WN25q0P1d4QkfGOthX5tNj/5QV7/aZlKzJGyva/6WuhU3EGN7i7rQko0K0QhfIDTtBxujGxnqze5XMbtOwwtm2Ti1xNUOOF3q25ppVDNNG5psrHVLXMRsaNBNDhFjmQtPMZshzHSzda3bS+ivPzNm7+rFhwAEWgYBtcTpdKpucEjmEHDJ6JAGgTIlUDH6cYn8Y2crdCJdelsKFWPMTtY4TteU1W28f8P06bQJMTkiHbpI3brG4vXKtcaKtUSoxOQwF3U1jTE6fWmcTjXGuiX2OTNdmbHznNOmIlFd6JdPjIprFKOVk4yFrPrvjKq2fTTWRN3IoOKvYpyxOC5x4W/fkdBOZ0utmb5Vp+vs1Kl4qzndiFMj6FQkS2UbI5QbLZ2aJxP2mh8HAQi0PAK6Q1UtccnWxSHgWt59Z0QQaDaB8NQvReZOk9pNDjAbBvpI6If3o9Ylf+WRPlvYNWOVj53b5NiQOrVOHXuf1P1jJ6n8/CV/0SbX4ZkTRWoWG/G4U1T0aKbIKps2TFGaadEYF8ps+33YlFdpGJrzm1QYy1xznU6NRgwjtfRVfDMiWp1uSFB+kc2PssequA0Qdf0OsZbE1maDiBOpeiRJzZF3NJbNgH20EAEIQKDFEUi1uSG5fa7F4WBAEIBAugQqxj4h9X22FDHTmhUfPZywWN2mRpQsnNNEvGkBXa9mhcymByUs70+oeOd2M+16oNQMOE0iPfpK7fp7Ss0hN0to4jgJ/fG9zR76q2HNW8SsZ9PDgyPtlvFXE/daD9cNTRglNQfeIHXr720tYnVmR2i1EZmR5VaJWyZZpB7Ya52uD/RZH916QTtNuqQSe/CvWSunGzXsYcTL9pLarY9v0kS67JsUJAICEGhRBNzmhnjr4hBwLepWMxgIxCdQX292QBqTvN/ZOO8UoydDxWfPN1zN+V0qzPEY8ZwKp3qzAaHik8bpQ3++8Lin7Q5WFVrx2gtJ41Smlq00B95WmLV3kfWMcDvhIanb9QKzwWKEVA4/3R4jonnUgqZCTI8qqT7jeak3R5hEnWdq1MZF3PaIhhxVjw8yu0vNUR+7nmenM2sPNev8dOOBWQdnnWFl3ZKt/Q0X8f8NT2kQcOHv322SIfxtg0Uu7Fn/Fv76NQl/9qLU7X25VF/0vugBy3rUiDrvF3Q67Js0SAQEINAiCeh3Q7yXLYS22Wab2G83M3zvF0m8sIvz+vHCSlLVo6Z5fQ3rR+d41Q+ZdSCl7BZfNlZaX7lJKQ+BvkOgCQG3Xqvi1Ruk0ljjCuF0E4AsmmenKOO1by1vZvdmyExZ6jRmJk6/+OqX7i6h+TPNdGbTXaaZ1JVpXj0PTvS8PbNpIV6/i4F9pmMif/kRaAm/ffNmz7Cvs9JXWummAfXjfbx3173+yu+7PC4+0XWqeJcez/dubmANXDxCxEEAAlK73al2vVbF5y8WjEbIiLdkLrxwdrLkpGkqnELmQOFCOLv+zYi3RK4Y2CfqG/EQgEDhCHg3NyDgCncfaBkCRUmgzpznVnPAdRIyFqLKV4zveUNCUXa4BXUK9i3oZjIUCOSIgM5cqkPA5Qgw1UKgVAnoa64qzTEiur5LD8nF5Y8A7PPHmpYgUMoEVMQh4Er5DtJ3COSAgG4Q0Lcf4PJPAPb5Z06LEChVAuxCLdU7R78hAAEIQAACEChbAgi4sr31DBwCEIAABCAAgVIlgIAr1TtHvyEAAQhAAAIQKFsCCLiyvfUMHAIQgAAEIACBUiWAgAvizpnX+kQ6dAuiJuqAAAQgAAEIFD2BiDkEW+ZPL/p+tuQOIuACuLsV41+0r+WJdF4pgNqoAgIQgAAEIFC8BCLd+kjdbhdKxbjnireTZdAzjhEJ4CZXjrhdarc8VmqOvkuk/bIB1EgVEIAABCAAgSIlMG+aVJizIis/GlakHSyPbiHgArjPK/ZaXmTi6w2fAOqjCghAAAIQgEDREzC/fZOnTC36brbUDiLgArizPMABQKQKCEAAAhCAAATSJsAauLRRkRECEIAABCAAAQgUBwEEXHHcB3oBAQhAAAIQgAAE0iaAgEsbFRkhAAEIQAACEIBAcRBAwBXHfaAXEIAABCAAAQhAIG0CCLi0UZERAhCAAAQgAAEIFAcBBFxx3Ad6AQEIQAACEIAABNImgIBLGxUZIQABCEAAAhCAQHEQQMAVx32gFxCAAAQgAAEIQCBtAgi4tFGREQIQgAAEIAABCBQHAQRccdwHegEBCEAAAhCAAATSJoCASxsVGSEAAQhAAAIQgEBxEEDAFcd9oBcQgAAEIAABCEAgbQIIuLRRkRECEIAABCAAAQgUnkBdXZ1UFr4b9AACEIAABCAAAQhAIB0C1dXVgoBLhxR5IAABCEAAAhCAQIEJ1NfXS01NjRVv2hUscAW+ITQPAQhAAAIQgAAEkhFQ8aaWt0gkEs2GgIuiIAABCEAAAhCAAASKi4CKt8WLF4v6XhfWeVRVdP4EbybCEIAABCAAAQhAAAL5JZBIvGkvrAVOMzgBFwqFRD84CEAAAhCAAAQgAIHCEFADm06bJnJNplCdmFMfMZcIG/EQgAAEIAABCEAgNwRSiTdttYmA83YFMeelQRgCEIAABCAAAQjkloA7JiRVK0kFnLewX8x50whDAAIQgAAEIAABCGRPQHWW95iQVDWlLeC8FTkx540jDAEIQAACEIAABCCQOQHVVf5jQlLVkpWA81aqjapzvjeNMAQgAAEIQAACEIBAYgLZiDetrdkCztsl7YQTcuxk9ZIhDAEIQAACEIAABGIJqGaKd8ZbbK74V4EKOG8TTsw5QedNIwwBCEAAAhCAAATKmUA6O02T8cmZgPM26sScHhjsfQ2ENw9hCEAAAhCAAAQgUA4EVLzphoXmuLwIOH8HnZDDOucnwzUEIAABCEAAAi2ZQKabFRKxKIiA83ZGRRzvffASIQwBCEAAAhCAQEsjoHpHrW5BzUQWXMC1tBvEeCCQawKb9usnOwzYXu574AH5/fc/mjS36y47y3JduspDDw9rktbSIjp27Ci777a7bLZpP/nhxwny3HPPy5SpU+MOs75NR6lbe4eYtJCZxghN+6HhE6mLSWvuRV3PtSXSd3upfOd2CQVcd3P7RnkIQCC/BFS8OctbUJs8Q1tuuWXs6+2XjMk7vRkv7OK8vobdtVbjrp3vpk79friqbX5J0hoESpjAVYMHy777DJQpU6bIzka8+N3TTz4p3bouJ1tus60/qUVdb7nFFnLbkFulsrJSFi5cJG3btrHfOWcNGiRvj3inyVgjXVeTmpMflfq6WpG6Je8XrGgloYpKqV84R1rdd5yEZ01uUi7biJq9L5fIentI1ZCBEp4dX1R6644st7LUt11GKiZ/6o0mDAEI5JDAvNkzoq8NDYfD0bB7lajzvV1wAszvuzwu3l2r78SbhuOla3ymLpxpAfJDAALFQaBXr15y0QXnN+2M+Y9US3f6RXvrzTfJ/PnzZevttpNN+veX7XfcSRYtWiQXX3RR0uG3Gn66tLl2G/tpfc2WUvXImeZApVZSc/jQpOUyTax85XqpuuPgtMSb1l2756VSt9mhmTZDfghAoIgJqAFLjwkJatrUO1QEnJcGYQiUCAH9Mvjq62/ksEMPlXXWWadEeh1cN3X8u+6xp7VA/vnnLFvx9OnTZczYsbLccsul3ZBObYZ/HCUVY58S6dTDWMCWTrtsqoyhmkUSnvFTqmykQwACLZSA7jTN9oy3dJAg4NKhRB4IFCGB4044wZrl77rjdjuN6LroXcbg4nYYMEBef/UV+erz8fLp2DFy1513RMvcPnSIvPX66y6rrNV3LRk/bpyccPzx0bh77vqfvPDss9FrF+hvLF+ad71113VR1h/1/vty2SUX23BVVZU8cN+9Nt/XX3wun4z+WK79v/+T9u3bR8ucdcbp8sHId0XTP3z/PTl30NnRNNefs848Q7RezbPG6n1k2rRpsmDBgmi+ZZZZRjbtt6n8OatB0EUT0gm4KdUlW6oi7ZaRmn2vlr8vHGk/1fv+n0TaLxtTU6RbH6k+6D+y+KIPZPGg16VmmxNl8alPSe0mB9p8tWb6dPEZL0TL6Jq4xSc/JosvG2vLVB82RCLd15S6PlvJ4vNHSH2vdaR+jW1suPrE4Y3l1tldqk8c1lDupEeldv09o2kasG1ucbRUH3qLzVO3zq4x6VxAAAL5JxDEMSGpeo2AS0WIdAgUKYG//vpLzj3/AtGF/ENuuSXaS7MSNRrWwBabby433/hfadumrdx1993y6WefyeabbSZPPPaYzffZ+M+lR4/u0rlzg0A59JCDpaqqUvbeq1EobLjBBjJp8qSYevWiTevWNm+HDh1i0tq1ayddOnexcdf8+2rZeKON5O577pYzzx4kb771tgzYfnvp3r2bTT/n7LOsWJwxc6bcOvQ2mTljphxz9NFy/nnn2vTWrVvZNo475hgZ9dEouXzwVaYvv8a017fvmlagqlgcdE5DuZgMCS7qzfq3OiOa6vofKqGpX0to0Rypb9VO/r+984CXorr3+H/33gsqKqAmdgXsimIFe+8F6xNrnsa8+BJLkhdLjHmJsSXRGEs0z0QTNZpEsQImsSKiYqcodkAFK6iAFe+9u/vOfy5nOTt3Zne2785+z+ezzJn/+Z/2PWfn/jgzZ7b7pBskPWgbswHhj94nM2gr6TrpRkn36RGd6ZUGSde3b5CMObbdf5m0PWTEmNmwICuubaAsZrHUspJZrmc1MJNsl64Tr5fEgvekwzxr13772V6L0pvuK4n3XpIOPf94jiQ+eN2Lt//7Ei9dRWD3oeeJfPKOtN9xjiQ+fltSI38uqc0PzvZI60jtcYokvvhY2m85VRJvPZ9NIwIBCNSegO401Wfeqh3YhVptwpQPgSoSGP/II3Lf/Q/IvvvsLfvvt5/869//7lXbOT85W7q7u80zYnt5R3X42bnnyNGjjpJNNt5Y7rjzTtEVsMMOPcyIrOtl5512kgULF8qgtdc2wqnDO/Y1Qm3suHt7lR3FMGTIOrLw00/lD9f+0dtk8NDDD8s55/aszmn+bx1/vMycOUsOPfwIr7g//ulPMm7MGDnmqKPlkkt/m63irnvukV+c98vsuY2svPLK8vebbzbPvy2SI02f3nq7t9C0vnrUla/srtCOvl6SCqP2sRd48fRmB0hm4OrScfXh2U0NyRlPSJdZXUsP3VuSk++W7j1OFdGND9cdL4nOr7x8bdPvk86zJ3hx/z+Z5VbyNku0PXObJN95ocfflJkNb37iiUf54hNJvvls1ty935nS9uoj0mHEm4a2lx/yVv269/6BtE0dk/VLmNvAHWPOz54TgQAE6kNAxZuuvtUiIOBqQZk6IFBFAmecdZa5dbiNXHzhBfLkk0/m7ATXatc0mx30mbHb/vGPbCv6GGGmYf/99pVLL/udJ9j22G1X8xqOe7yVuP8540y57NJL5JCRI2XwkMFe/ofHj8/mLyZy4003yq8uukimPPeczJ49W16c/qJc+furRZ9Z0+f3dBfpCisMFN09a8PAAf29VbcNN9zAmmTSpCezcTdy/LHHeGUcfOihoqt4hUL7xOsl+f4rnpu+ViQ97CBvI4PdKZoePNzbqZra7WRxL8O6e1VX5cQIuPTgbcxzc7dnxZsWlkib3a0hIbnwA0m8PVm6zUaJ7vdeMSLuRUm+Ol7a8qyWpY2ITJjVwIx5Nq/r8IuWlNx/ZW+VL91/FdFyNSTnvLgknRgEIFBzAvroSiXf8RalAwi4KJTwgUCDEXC3oeuFQ5+HUwH0Z7OCphcRN+iOzU/Mc2FTpua+nuLpZ5+WiY897rk+//xk2WnHHeToo0aZ/N1y/wMPyI/Nc2gHHzxSll9ueZkz5528u6hUhIUFXbmbOm2afPc7/yUbbbSRjDzoIHN7dqQcOPJgb4VP882aNct7j5u/jE8+mS+rr5b/NUOLzA6vZ404jCLetPzknGmSfOs5r6qEEVJfD91PUrt9T5J3/cyzZbQvX39uBNcU79z+027OE4tfM5JItJlXkeRyVr9MxpV8NmfPsc9NRhCuu72kh4yQzKAtpXv4kZJ+ZrR03HdprqM9M7ddNSSMOEvMm2Wti9s1RhJff5m1EYEABOpHQK/Bess06PnjarYq/KpbzVopGwIQqCiB115/Q641tx6/d/LJ3m1Sfb2GDbPnzJEVzAP+v/7NpdlbqDbNHseMHWOeS9tNRo0aJa+9/rpnfvTRR+U/jjjCe2fRrbfdZl1zjnPnzvPO9eXBE4y/DYmEjfUcZ5tn1n728597J8sss7Q8Y1YKv3PSSZ5NVwe7zS2HCy/6VW6mxWerr7ZaoN0ar77mDzZa9DGx6DOzkjZa0uYZuPTDV3srWskZTxqRta0kXxkvSXNLMygkZk+R9Cb7SGbin3NW3jxhF5Rhsa1Nd7yaj4YuXeHb/oRcAZdY8lhy0tzWla6vxShnaX/ujsUlcIAABBqJgBVv9WjTkqtFPWqnTghAoGIEVMjos2T+1bCrzO1K3WTwz3FjRYXW8G22kT+anas333hDtu7xj0zwVtgG9O8v9/7zn579b3//h7dCpuWNviNYQLz8ysveit8+e+8jp536fXMrd7jcYcSe24Y7R4/2Vgd1I4M+r3bO2T/xROE0syqn4U6zu1XzaZu0bXvtuafcawTl6aee4qUX+kdfbOzeHi7k709ve+Imz5Ta9WTv2Db9fvN823yz8/MWs2K2g+itzO4tD5XO4//PbHDoWQ1sn/Ans2FhTek6/hpJmRW19JqbS+fRl4ssfqbOX0f6G+t4O1J1h2jGbHJIr7KBpDfex7xmZMnKmiz4QDJrbS7qqy/11dA2/mpJjzCronue7tl0J2vnUb8Tdpr6CXMOgdoTqPZrQgr1iBW4QoRIh0CDEUhn0qEt+s9vf1seeejBnHS9Hdqv3zJy9plnym8vWby70Wxq0M0LNuj/It82z6cNHjRI7ryrx66bAfQ1HXoLVoVhWPj+qafJ1VddKf/93ZO9zxOTJnm3Ya2/rt6dZeq+6Ya/eCatSzdb3L64/vN+eb4kzcrTyIMOFP11BQ1ar/1JLF2d0xD2YPAO22/nvftNRaNu1ggNIdx0lU03JqSNSEub3aR63ve6/5TOIy6W7mOu8IrT59/anlvCK/nui9JuXgCc2utH3nNtXvq0cZLRFTMbzMqZDYmF70ty5lPSZXaQ6i8/aEjMe0s6Rp9pXUz5t0vX+jtI1/fM7mCzMtj3EvMzXE/rTuGkdO90oqS3P77H1+xWlc/mZvN5kZC+5TpxBgEIVIqA3jnwP65SqbKjlsNPaUUlhR8EYkDgGyutJH2XWsr7Ga5Kd0dX1z7++ONQEaWvO1n5m9+UGTNnhj4rMmTwIJk/f4HMX7AgcvN0p6zuktXXqlQ6pNvMZo9lVpDEZx8ufkNc7xq8VTmzEzVjfDt/MtG8duRaaZ/Us6rX29vcEV3um+YZOyOMO7/olawvgMn0X9XsSF1oNkjkPuOW6beSuaX6Rc7GiV4FYIAABIoiUMpPael/FPU/lO6zyG7cNiDIpmlhdpsv6pEVuKik8INADAhEfdC/lK7qi3XzhU/Nq0T0ky/MevOtfMmBafq/4Gr9TzipGxWMeAsKqbW2lOTcGZJY1NOn9Kb7e6tryVceCnLP2pL+1bNsirmwm7iu1gWFxBcfBZmxQQACNSSg1xpdfWuEgIBrhFGgDRCAQFMRyCTbpOvI30himQEic2eaVbqBIsualbrpD0b+7dOm6jCNhQAE6rLTNB92BFw+OqRBAAIQCCCgLwLu+7t9vd2qmW+ua26Jfmbe6zYhdNdqQBGYIACBBiDQ1tZWcEVNn9vV26a68lap25+V6DoCrhIUKQMCEGg5Airi2vTXFNxfVGg5CnQYAs1PQDdqqUgLC7X4WaywuvPZEXD56JAGAQhAAAIQgECsCYStqnnvqDQrb2Hp9YaCgKv3CFA/BCAAAQhAAAJ1JeAXaSrewl5dVNeGOpXzIl8HBlEIQAACEIAABFqPgN5GtSJOxVu1drZXkiwCrpI0KQsCEIAABCAAgaYhYDcnaINVwOnzbnlfCN5APeMWagMNBk2BAAQgAAEIQKB2BHTzgt4q1aNdgatd7eXVVPcVOF2qJEAAAhCAAAQgAIF6EtCVt3y7UevZtqC66y7gmglWEEBsEIAABCAAAQg0NwF3MalZdEldBZwLrLmHntZDAAIQgAAEINCsBBp9x2kQ17oJOBVvzaJyg8BhgwAEIAABCECg+QmEbVpQjdLIOqUuAq7RoTT/dKQHEIAABCAAAQgUIhDlTmCjiri6CLgowApBJx0CEIAABCAAAQiUQyCqHmlEEVdzAcet03KmGnkhAAEIQAACEKgHgUYTcTUVcNw6rceUo04IQAACEIAABCpBoJFEXM0EnHa6GXd5VGLAKQMCEIAABCAAgXgQaBQRVzMBF/U+czyGl15AAAIQgAAEIBBXAo1wR7EmAs7+TEVcB5J+QQACEIAABCDQegTquRpXdQHXCCq19aYUPYYABCAAAQhAoBYE6iXiqi7geO6tFtOHOiAAAQhAAAIQqBeBeoi4qgo4xFu9phL1QgACEIAABCBQSwK1FnFVE3A891bLaUNdEIAABCAAAQjUm0AtRVxVBJx2oJadqPeAUT8EIAABCEAAAhBQArXSP1URcNw6ZRJDAAIQgAAEINCqBGqxkFVxAcdPZbXqdKXfEIAABCAAAQi4BKq5GldRAafijRf2ukNHHAIQgAAEIACBViZQLRFXMQGnDUS8tfIUpe8QgAAEIAABCAQRqIaIq5iA47m3oCHDBgEIQAACEIAABCq/uaEiAo5XhjA1IQABCEAAAhCAQH4ClVyJK1vA8dxb/sEiFQIQgAAEIAABCFgClRJxFRFwtlEcIQABCEAAAhCAAATyE1ARV66QK0vAdXd3528hqRCAAAQgAAEIQAACgQTKEXElCzieewscC4wQgAAEIAABCEAgMoFSRVxJAk6feyu1wsg9whECEIAABCAAAQi0AIFSNFXJAq4FeNJFCEAAAhCAAAQgUBMCxYq4ogUct05rMo5UAgEIQAACEIBAixEoRsQVJeBUvPFrCy02m+guBCAAAQhAAAI1IxBVxEUWcFog4q1m40dFEIAABCAAAQi0KAHVXIWEXGQBp6tvBAhAAAIQgAAEIACB2hDIJ+IiCTiee6vNQFELBCAAAQhAAAIQcAmEibiCAo5XhrgYiUMAAhCAAAQgAIHaEggScXkFnGbg1mltB4naIAABCEAAAhCAgJ+AX8TlFXCINz8+ziEAAQhAAAIQgEB9CLgirj2sCTz3FkYGOwQgAAEIQAACEKgPASviAlfg9Lk3XhlSn4GhVghAAAIQgAAEIFCIQKCA49ZpIWykQwACEIAABCAAgfoR6CXgEG/1GwxqhgAEIAABCEAAAlEI5Ag4FW/cOo2CDR8IQAACEIAABCBQPwJZAacPxSHe6jcQ1AwBCEAAAhCAAASiEsgKOG6dRkWGHwQgAAEIQAACEKgvAU/AqXiz21Lr2xxqhwAEIAABCEAAAhAoRCDJK0MKISIdAhCAAAQgAAEINBaBJLdOG2tAaA0EIAABCEAAAhAoRCD7DFwhR9IhAAEIQAACEIAABBqDAAKuMcaBVkAAAhCAAAQgAIHIBBBwkVHhCAEIQAACEIAABBqDAAKuMcaBVkAAAhCAAAQgAIHIBBBwkVHhCAEIQAACEIAABBqDAAKuMcaBVkAAAhCAAAQgAIHIBNoje1bRca01Vq9i6RQNAQhAAAIQgAAEehP46MN3exubxNIQAm72O80LsEnGmWZCAAIQgAAEIBAjAtxCjdFg0hUIQAACEIAABFqDAAKuNcaZXkIAAhCAAAQgECMCCLgYDSZdgQAEIAABCECgNQgg4FpjnOklBCAAAQhAAAIxIoCAi9Fg0hUIQAACEIAABFqDAAKuNcaZXkIAAhCAAAQgECMCCLgYDSZdgQAEIAABCECgNQgg4FpjnOklBCAAAQhAAAIxIoCAi9Fg0hUIQAACEIAABFqDAAKuNcaZXkIAAhCAAAQgECMCCLgYDSZdgQAEIAABCECgNQgg4FpjnOklBCAAAQhAAAIxIoCAi9Fg0hUIQAACEIAABFqDAAKuNcaZXkIAAhCAAAQgECMCCLgYDSZdgQAEIAABCECgNQgg4FpjnOklBCAAAQhAAAIxIoCAi9Fg0hUIQAACEIAABFqDAAKuNcaZXkIAAhCAAAQgECMCCLgYDSZdgQAEIAABCECgNQgg4FpjnOklBCAAAQhAAAIxIoCAi9Fg0hUIQAACEIAABFqDAAKuNcaZXkIAAhCAAAQgECMCCLgYDSZdgQAEIAABCECgNQgg4FpjnOklBCAAAQhAAAIxIoCAi9Fg0hUIQAACEIAABFqDAAKuNcaZXkIAAhCAAAQgECMCCLgYDSZdgQAEIAABCECgNQgg4FpjnOklBCAAAQhAAAIxIoCAi9Fg0hUIQAACEIAABFqDAAKuNcaZXkIgL4GOjg4ZedCBcvFFF8p1f7xWvnfyyTJk8KC8eUpN/OHpp8k5Z59VavZI+dZaa03583V/kg3WXy+SfzlOiURCrr7qSo9fvnK+8+1vy9Tnn8/nQhoEIACByAQQcJFR4QiBeBLYcost5PFHJ8ivLrpIRh54oGyz9dZy6infl3FjxsiF558vKlAqGb51/PFy1KhRlSyyV1kjDzpIth0xQo44/PBeaZU2rL3WWrLbrrvKf530nWzRKiBVsLlh1VVXkY6OdtdEHAIQgEDJBLialIyOjBBofgLrrDNE/nrjDZJKpeT8Cy+SMWPHyqJFi2STjTeW837xczn0kINlxRVXlO+dckrFOnvEkUcaIdNRsfKCCrrmD/8n06e/JI8/8URQckVtb739tpxoxNsbb7yRLfdHP/iB7L7bbnL9X/6StRGBAAQgUEkCrMBVkiZlQaDJCFx1xRVei3/04zPkttGjPfGmhpdefllGHX2MvPvee7LzTjvKFptvXrGezXrzLXnt9SVip2IFOwVlMhmZ8Oij0t3d7VirF33m2Wdl/oIF1auAkiEAAQj4CCDgfEA4hUCrEFhjjTVk0Npre6tU4x95pFe30+m0HH3ssZ79B+a5NQ2nn3qKTH72Ge8ZuSnPPevFvQTfPz8560x57umn5KUXppnnvp6Tv9381+wzdbf+7RYZfes/sjn0Fu1vL7lEnp70hEyfNlUmjH9Yrvn9VTlla9pll14q/xo3zvPRZ8mu/cM12TL8kWGbbeY9b7b1Vlt5SVr/mLvu8p7vmzb5ea+Me8eOkYEDBvizeuePPPyQXHX55dm00079vlee8rJhomGmq5Qannlykmif9Taptm2vPfeU9vZ2L67n7vOEenvasnl84qMyYvhwWyRHCEAAApEJIOAio8IRAvEisMvOO3sdeuDBB0M79vHHn8jnn39uBMgQz6d///7St29fOfHEE+Qft90m5/7v//bKu+cee8jxxx0njz3+uJz+wx/KjTfdJOutu65sv/0Onu/yy/eXFQaukM2n4mq/ffcxtzynyxVXXiWvvvqq7LrLLl491mmppZaSfffZW6YaQai3et98603ZaccdswLK+tmjtlGfN1t++eU9k7Z73XXXkeWXW87kv9C07QkZPGiQEZY32yw5x/fMyuO2247I2g484ECvvOOP6xG0KuRWXHEFmTx5suez9NJLy8CBA0V5XXTxxaYPr4muAmpcPx/OnZct6z8OP0IuN/0cffvtsmy/ZeVP1/6fJJNcirOAiEAAApEI8AxcJEw4QSB+BNYZMtjr1OTJU/J2bq4RH2uuuUaOz4/+58fyxKRJOTZ7svmwzbzo+Rdc6N1WfHj8I3LFVb+3yTlHXSnTz8233CK/vuRSL02fG/u1ET0HHXhAjq/W99Nzf+bZbr/jDpny3HOy42JRmOMYcrJg4UIZdUyPALvzrrtl7N13yxDDQFcAVWy54b77H5DNhw2TlVdeWT777FNZfbXVRPPrZoULLrpYDj30EC/Pv++7380mnZ2dcvuddxqxup2st966XjzHwZwcMHKkJ4rVrv7HmVXOnXfaybvl6/flHAIQgEAYAf7bF0YGOwRiTmDqtGleD/fYfY+8PV1jjdXlo48+zvEJE2/q9OcbbvSePXvM7Gx94L5/e7dDw56hO/CA/b1yr7r66pzyv/rqy5xzPfnss8+zNhVcM2bMkH79lsnaCkVULLlh/IRHPPEWtKHi7nvu8VwPP/RQOeKwIzyxdulvL/MEna7qqeB67/33pauryy0yUlxXNG0YbYSohlVXXc2aOEIAAhCIRAABFwkTThCIH4GJEx/zOrX/fvuGdk5fMdKnTx952WxqiBrmz58v25nbmzfceKPMmzfPe8brlr/eJCeecEKvItrbe3ajdnXlbjbwr4j1ymgMqVRuniCffLYun6BzfVVkqWjdbbdd5aCDDpA3zcaLseb5O30ucJTZRTt40GB54ongFUi3nELxrxd9XciFdAhAAAKBBBBwgVgwQiD+BPSWoD7/tuGGG8gFv/xlrw7rK0b+cv11ZpWpW34RkN4rg2P48suv5LLLr5Bjj/+WbD1iW08MHTXqSMejJ3r/4ufv/OKuzWwAqHd4xmzW0Gf31l9vPXngoQc98fbWW2/LCf/5Le95uDvMrVICBCAAgXoRqP9Vsl49p14IQEDOPPsn3jNoh5lnurbYYnOZMGGCzJ7zjtlFuYd5oe82Zidlm/z8vPOKekXGWWee4b0Q+NLLficTJ06Uvffe23vgP+idbE8//bS888478oPTTpXVV19NHn74YW/FTm9d1jvcfc8Y2X+//bxmjK3TGgAAIzhJREFU/OPWW73j/Q8+4O3A1dux+qqVsDB37lxvF+rRo46SmbNmir1dHeaPHQIQgECxBBBwxRLDHwIxIqDvSdt9r73lfCPSdNOAXQnTW5j6DrhTTztd3jDPmtmgtxAL3d7UB/v3NaLt4gsvsNlk5sxZcsZZZ3vnGVmyYUDLOvSII+SmG26Qww45xDxvdph89dVX8tprr3srg9kCTCSTSbun3opYjsE56TYvJnZDJm1qNW13Q9rY8oVJTz7pPcu3cOGn3u5S9VUhpz8zpjtl84W/3nyLHG768rNzz/HcjjzqaK+9fnapdE8704uP+cokDQIQgIBLIDFixIjAq5j/QmPP7VELsXE9+uN2Z5dN06O9+Otb3+252jqWWtZtE3EIQKBOBPRVGKussrK88kp+gRKlebo5QF/doc+P6a87FAp6zRhgXvehL8T9/ZVXeDs+hw6r3AuEC9VfjfSNNtrQ23yhq4wECECg8Qh89OG73mYmvf7Y1/lo3H60xRrXoLrFxvU8LK5pGtz0HkvPv2F21ydKvN3foCiZ8IEABOJJQDcg6KcSQXdoRhGC+vJb/f3VsePu9cSb7vLcYfvtZdasNyvRjLqWEaX/dW0glUMAAk1LwLuFiohr2vGj4RBoegLfNrtTjzn6aO827udffOH9OoKuzF9x1VVN3zc6AAEIQKBaBBLDhw/P3kJ1l/VU1LnBntujptm4Hv1xLcva7ZFbqC5R4hCAgCUwdOhQs2FgX1nFvDj3UfN6k3H33pv3GTebjyMEIACBcgg09S3UcjpOXghAAAKVIKA/o6UfAgQgAAEIRCOQ8x44u4oWLSteEIAABCAAAQhAAAL1IJAj4LQBiLh6DAN1QgACEIAABCAAgegEegk4zYqIiw4QTwhAAAIQgAAEIFBrAoECrtaNoD4IQAACEIAABCAAgegEQgUcq3DRIeIJAQhAAAIQgAAEakkgVMBpIxBxtRwK6oIABCAAAQhAAALRCBT8LVQVce774aIVixcEIAABCEAAAhCAQLkEVIe5Hy1PzwsKuHIrJj8EIAABCEAAAhCAQGECrlCz8bBckQScFkKAAAQgAAEIQAACEKgMAf11Kg1WqBWrtSIJOFsBt1I91vwDAQhAAAIQgAAEIhFwBZrG7U+NRsqcxymygMtTBkkQgAAEIAABCECg5QlYsaYg3LgFUynxpuUVJeC0MQQIQAACEIAABCDQ6gTsLVDl4Iq1Wt2tLErAtfpg0X8IQAACEIAABFqPgIo1K9LcVbRaibUg4iUJOO1EPRsd1BFsEIAABCAAAQhAoBwC9k6jCjYr1KzesWnllF/JvCUJuEo2gLIgAAEIQAACEIBAPQi4q2pWtGk7rGirR5ui1pn3lxjyFdJoSjRfW0mDAAQgAAEIQAACfgLurVF/WqOflyzgtGOIuEYfXtoHAQhAAAIQgEAcCZQl4BQIIi6O04I+QQACEIAABCDQyATKFnCN3DnaBgEIQAACEIAABOJIoCICjlW4OE4N+gQBCEAAAhCAQKMSqIiAa9TO0S4IQAACEIAABCAQRwIVFXCsxMVxitAnCEAAAhCAAAQajUBFBVyjdY72QAACEIAABCAAgTgSqLiAYxUujtOEPkEAAhCAAAQg0EgEKi7gGqlztAUCEIAABCAAAQjEkUDVBBwrcXGcLvQJAhCAAAQgAIFGIFA1AdcInaMNEIAABCAAAQhAII4EqirgWIWL45ShTxCAAAQgAAEI1JtAVQWcdg4RV+8hpn4IQAACEIAABOJGoOoCLm7A6A8EIAABCEAAAhCoN4GaCDhW4eo9zNQPAQhAAAIQgECcCNREwCkwRFycpg19gQAEIAABCECgngRqJuDq2UnqhgAEIAABCEAAAnEi0B6nztAXCECgegSWXbafbL3VljJkyBCvklmzZslzz0+Wzz//onqVUjIEIAABCAQSqLmA41Zq4DhghEBDEkgmk7LhhhvIVltuIeutM0SSbW3Zdg4ZPEh233UXeWPmLHneCLlXX3td0ul0Np0IBCAAAQhUj0DNBVz1ukLJEIBApQh84xsryVZbbSVbbDZU+i27bGixKug2WH897/PF55/L1GkvynOTJ8u8eR+F5iEBAhCAAATKJ5AYPnx4JqgY/0qZe27jQUdr0zI17v/o/9DtR9M03rFU+B+IoLZhgwAEKk+gb58+spkRbFtusYWsueYagRW88+57MmXKNC9tiy2GyRqrrxboN2fOOzJ5yhR54YXp8nVnZ6APRghAAAL1JvDhe7MlkUjkfLRN1mbjerT6RtNscOP5bFHSrE/UIwIuKin8IBBjAsM221QOOfgg6ejo6NXLT+bPlxfMytqUaS/Ixx9/nJO+4ooryhbDNpPNhm0qKwwcmJOmJ11dXXLn3ffI9Okv90rDAAEIQKDeBJpZwNX1FqpVs/UeQOqHQKsT2GvPPXLE26JFi2SaEW0vTJ8ub789OxSPCrqHxj/ifdZeey3ZbOhQGWbE3FJLLeXlUUG45x67I+BCCZIAAQhAoDQCdRVw2mREXGkDRy4IVJLAgAH9s8WNGTvO3P6cKqlUcRsSVOjp51/33Wduw24uB488yCtzhQEDsmUTgQAEIACByhCou4CrTDcoBQIQqBSBA/ffz3tVyPOTp8iMGTOLKnbdddfxdqxubHau2uDuXLU2jhCAAAQgUB4BBFx5/MgNgdgRaGtvl02HbuJ9FsxfIJOnTjU7S6fIpws/Dezr8v2Xl63Na0a23HxzGTCQ1bZASBghAAEIVJgAAq7CQCkOAnEioIJs99129T6vvzHDe3Gvvu9Nw4YbrO+92Hf99dbt1eUvv/xSlllmGc/Ou+F64cEAAQhAoGwCCLiyEVIABFqDgAo1/XzxRc8vL/Tr169Xx+d99JE88cRTZsfqNPnlz8/tlY4BAhCAAAQqQwABVxmOlAKBliHgF266wvb6G2/IpKeekVnmVxn8QX/NgQABCEAAApUlgICrLE9Kg0DLEPj666/l+clTZdKTT8qCBQtL7ndm2RUlvdYWklltE8ks+lSS770kyXdelETnVzllpoaMkMzA1XNs7knbSw9JwuS3Ib3cyqbczSWz+saS+HSuJN99SRJzpklCAt9d7mXr3mRvSXQsLW1Tx9hiIh8zfZaR1Kb7Sttrj0ri85735WlN6bW3lPSaw0SWGSDJeW9K4v1XJfnBq5HLxRECEIBAEAEEXBAVbBCAQEECT0x6UsY/8mhBvzAHFTep7b8lqT1P81wyXy7wxFO6o695A/DX0n77WdI2Y1I2e2q74ySzzraS6fwya3Mjybee9wRcxki01I4nSmr37y0p14inlJ7NnSkdt/1YkvPfdbP2+A1YTVKHX9Rj/2SOtM2e3MsnnyGzwpqSOuAcSXz0lrQZAZcxQrBr1G8lM2S4yIL3Tds+k+6tDhfR/r33irT/6zfSZsQqAQIQgEApBBBwpVAjDwQgUDaB7n3OkPSIUZJ44Z/S/uh1WVGVNqtsXUf+VrqPuVISVx4kyYUfZOtKfPC69P3TsdnzoEhqvzMktc2RkpwyVtommnJN/nRbh2QGD5fu//iNdP33bdLnigMl8dWCnOyaxxOH3Z2S3vaoogVcTmHmJDV8lCfe2v/639JmxKUNqfV2lK4DfyqZVdY3Qg4BZ7lwhAAEiiOAgCuOF94QgEAFCKS/uW6PeHvjcem45zyzZrYk6OpYn+vMatvK6+eItyUe4TEtV4VYwtzG7Bh3QdYxmeoSmfGEJG45RbpOvF669jtL+tz102x6JpE0q2OHSvvzd5vVv0WS2vkkSffpJ8nOng0bWcciIun1dzK3bF/IEW+avc30OXn5AXlv5RZRDa4QgECLEuDp4hYdeLoNAZdAd7d3g9E1lRzXn9Hafbddsvn191D9odvcOtXQMfrsHPFm/RLplCTff8WeRj6mtjvG8+24Y4k4czMnzTNwbc+OlszQvSTTZ+lsUnqDXSRhnmFLPn+XWbm7x7Ont+j5JQk9ySy9vHx9+ljpOuzCbJ5Msk06T/yzdB53TdbmRhIfvW1W2TYweXu/Gy/fc3huGcQhAAEIhBFgBS6MDHYItBCB2XPmyJDBg8rqcZ++fWXH7baV7bcbIUstvUQcvfnW273Kzaw+1HsOLJHq7JWWz5BZur+k1tspxyXx9uTsSllmtU0lYTYI5Cs3MeNJEbNKl15lo+xt0tSIo7zn45Kf9Pzua8JseEhtfaS0P32rV1fiq0+l/YHLpfvIS6Tb1NduhF73nqdLerWNpc+1Jm9AaHv676IisPPMByVhbqEmZ0+VxIdviPesnu/2bUB2TBCAAATyEkDA5cVDIgRag8Dd94yVE44/VlZcacWiO6zCbftth8sO228nSzvCTQuaN+8juWfMuN5lLv9NSb48tZd90blPSqIt97LUfuN3jdCa0uPbf2XzfNwlOfn6/PkEkQ9e82zp/qbcV/NvrEh89Kbnmxm4mojZqJBefmXJmJ2i7f9aUm7y2TskdcgvjMjbwOwY7Sm77dVHJP3MaG+jgpjVuvS2x0jHXf8ryY97C1StIDl3hnSYZ/jSw8xn8NbmmbgjRZZazqtbn/vruO8yb2ODZ+AfCEAAAkUSyL1SFpkZdwhAIB4E5s+fL5f//hoZttlQ2XXnneUb31ipYMf69ukru++6i2xnVtz8wm3u3Hny6GOPybQXppv7j7rfNDckjOhJr7F5rtGcddx2hnlIrOeylF53B0mb59KSn7yT9Su0iUFvW8qam2X9gyKZNXrSkx/O8JLTW5udoSakNtxVUoO28uJidpB6tm1GSXLc+T0282/7A7+TLrMZIrXXDyQ5bZy0Tb8vmxYU0Q0USbORQvRjgt5OTW22v6T2+ZF0m40VHXeeG5QNGwQgAIGCBBBwBRHhAIEWIWCE1rRpL3qia+gmG8kuRsitusrKoZ3fYYfteqW9/8GH8uijE2X6y+b5tQDhZjPobc+MuW2Z7r9KzkaFNrPRwIbUlod5rxNJfD7Pmgoe20y5qe2O9VbVkp9+GOif2sQ8/5bqloRZIfNeObL1ET23T83tTTekl1vJiK39zMrcr5fckm3vK+l+A7zn9jL9il+t1J2v7XprdZM9zfvhtnarIw4BCECgKAJsYigKF84QaAECRnhNn/6yXPOHa+Vvf79V3n33vYKdfsf4qK/mmf7Sy3nFmxbWritS5l1vXSfdJPoiX3/oHnagZNbbXtrG/8GflPe87fG/eOV2nnSDpJcZ2Mu3e6fvSMbsDm0ff40k0t2SXm8H77am3j5tf/CKnE+bCjezGpgaune2nK7Df2Ua30fa7/65ZNbdXrq3PTab5o90HfBTSZnNEf6g65GZZVcyz8O97k/iHAIQgEBkAqzARUaFIwRaj8Arr74m+tHfQN1ll51l7bXWzIHw9uw5MmHCRHljRs/tyJzEPCfepgDzQt2uo6+Qzu/fLsmp4yQ58ykjppb1NilkzMpX4s3nRDcCuCHdb6CkjXAKCgnznJxXrnkBcNeoy0y5o6VN3wU36ynJDFhdUhvv4b0IOGHqaXvyFq+I1IijRV8gHPTS3jbzaxDdCz/0Xnci0+6Vbn1PnBGVHYvf66avOUnt/UNJmM0J/hfy6g7XzEpre68mSb38sLnVer9Z8Xujpx27fFdkwKrS9k8jBgkQgAAESiSQGD58eO8HVExhGd/tD/fcxoOO1qbt0bj/o7+b6P/0Wbrnwd4S+0A2CECgRgTWGTJYtt12hFfbU089LTNnvVlWzbqBoPugn0l60NbZzQsqqNofu8G71egW3mle7KurXmHB3eyQ7r+qdB9sNiGYn7CymyIyn80z5f5F2p+7wytCV+i6znjAPKN2vXRM+GNgsV3mFx3Su39f2m85TbqP+70kJ90kHQ9d7fnqu+M6v/s3EbOxos8VB0hmhbWk67u3SMcN/yXJOT0bNLo3NxsYdjop9yfAPp4jHWN/aXymBdaJEQIQqB2BD9+bLYlEIuejtVubjevR6htNs8GN57NFSbM+UY91E3CpVEq6u80tDCPoll6293uSonYAPwhAIB4E9Hm4xNdfVHRnpne70og5ffbM/9uqtaSWSbZLxgi9hHkuL2GevyNAAAKNQaCZBVzNb6GqglXxph+7OtcYw0grIACBehJwfzKrUu3Q/ycnFr5fqeJKLkeft0sE/P5qyQWSEQIQaHkCNRNwKtZ0xU2Fm666ESAAAQhAAAIQgAAESiNQVQGnok3Fmgo3Gy+tmeSCAAQgAAEIQAACELAEqiLgVKzZlTaN64cAAQhAAAIQgAAEIFAZAhUVcLraZoVbZZpHKRCAAAQgAAEIQAACfgJlCzi72samBD9aziEAAQhAAAIQgEB1CJQs4Kxw0+fbNHCbtDoDRKkQgAAEIAABCEDAT6BoAWc3JbCT1I+ScwhAAAIQgAAEIFAbApEEnK6uWeHGSlttBoZaIAABCEAAAhCAQBiBvALO3ibV59s0IN7CMGKHAAQgAAEIQAACtSMQKODsblIr3GrXHGqCAAQgAAEIQAACEChEIEfAcZu0EC7SIQABCEAAAhCAQP0JtPtvk9a/SbQAAhCAAAQgAAEIQCAfgfbOzs586aRBAAIQgAAEIACB2BKwz/cnEomm6mOyqVpLYyEAAQhAAAIQgEAVCKiQs2KuCsVXvEgEXMWRUiAEIAABCEAAAs1MoBmEHAKumWcYbYcABCAAAQhAoCoEGn1FLmcXalUIUCgEIAABCEAAAhBoUgKNuhrHClyTTiiaDQEIQAACEIBA7Qg0mpBDwNVu7KkJAhCAAAQgAIEmJ9Aot1YRcE0+kWg+BCAAAQhAAAK1J1BvIYeAq/2YUyMEIAABCEAAAjEhUK9bqwi4mEwgugEBCEAAAhCAQH0I1GM1DgFXn7GmVghAAAIQgAAEYkaglkKuYgKu2X6CImZzhu5AAAIQgAAEINAgBGoh5Com4BqEGc2AAAQgAAEIQAACDUGgmkIOAdcQQ0wjIAABCEAAAhCIK4FqCDkEXFxnC/2CAAQgAAEIQKChCFRSyNVFwPG8XEPNJxoDAQhAAAIQgEANCVRCyNVFwNWQEVVBAAIQgAAEIACBhiRQjpBDwDXkkNIoCEAAAhCAAAQamUDQ3cQgW5Q+lCLkaiLgbIfsMUpn8IEABCAAAQhAAAKtRKAYIVcTAddK8OkrBCAAAQhAAALxIFCvhacoQq4oAVdMR7RyAgQgAAEIQAACEGh2AvXSNPmEXFECLsoARBV5Uf2i1IkPBCAAAQhAAAIQKIVAVD0S1a+UNhTKEyTkyhZw5Xao3PyFOk06BCAAAQhAAAIQiAMBV8iVLeDKAYJ4K4ceeSEAAQhAAAIQqCSBZtElKuRqLuCaBU4lJwRlQQACEIAABCDQuARUmzSbPqmagLMg7LFxh42WQQACEIAABCAAgeYiUDUB58cQJOTUFmT35+UcAhCAAAQgAAEIQGAJgZIFXJDwCrItqaonhmjzE+EcAhCAAAQgAIFGItAMWiUZRXSVClUfsgsLtl57DPPDDgEIQAACEIAABKpBIIoGyadlqtGmqGWWvAKXrwI/EHsedsxXFmkQgAAEIAABCECgWgRUm9hPWB1Wv9h0/7m11/KYV8BVqoFB5VibPday09QFAQhAAAIQgAAEKkmgkJ4plF5sW/IKuKDCghoQZNO8frs9d482HlQXNghAAAIQgAAEIFAtAs2sQdqrBSWsXIWl95NdaJ1ffebZ1G4/mt/ed06n09nirM0eXT+Nq69btj9dz8OCW2aYD/bWINCKc8H22R5bY6Sbv5etOl7a71bsu/v3sPlnb08P/H+zS+2Xv5ywc2t3jzaudWvcPS+1PdXOV5aA0w76v0B+m6ZbGH7fMFD+MpLJnoVCW5Z7tGXo0do1rkHLiRJsu6L6RykTHwg0AwE79+1R28z3oBlGbkkbdbzi+Ed9SQ97x3S+unO2t0d8LXw/g8fW5RIW15w2zR6DS1ti1XkW1XdJrtrEyhJw+ZqoHXY77j9382qafuzqmf1iunlsWf6jlmP9Na5izz23Nj367WrToPUQIGAJ2Hloz+N2tN8De9T+8R1o7lFua2trKRGnc7eV56z73W3umdvT+nxjGdTXMH+/3T2PEtfWuH5hbKP4hOWtpL1iAk47FATabazrExQvF4rmt398g9pi6yy3HrdPxONHIK7zw/+diGs/4zcjo/WoVUScvcZHoxI/L/0ex/m76+9fWF+j2v1+eh5k05li7fZYzOwpJU8x5Qf5liTgtKH+PwZu4f50d0DctHI67Jbjr9s9jxovpy1R68Cv8Qm4c7XxW1u4hdof/3eVuV6YW7N6BN2BaNa++Nut81jFW6uHOH1//dcmHVt///zn7viHpfnt7rkbL1SWti/M381br3hBAaeND4IcpcE2rwVgz/UiY/8X5QfkPy+mHvW1dQXlK6XsoHKwxZeAzhH9NHNo9vY3M/t6t91e/+I4B+LYp1LmS9w52DlciE2Yn9/uP/eXq+mujxv3++p5ofSgPOXkCytP7Z6A0waVOimi5tXy3Y7buFuvtQU12NZjj0E+arNlBPnZNLfOsHKwty4BO0+ajYDOa+Z2s41a5dtr52+c5oJdebN9qzy15igxDmNa7hiG5Q+y+216HmQLGv1mYF1wBS6oY2E2BWM77cZdf2t3j5puzzWuZdhze3R9rM0ebZo9um1QmwZr07jmKxRc/0K+pMeHQJS50Ui91XnqztVma38jsYxTW+y10Z0bzdo/K96atf2VbLeOaxy/48X2Kcw/yO7a3LiOS7HnYWPpLyfMr9L2kgWcNjjKxcH6hXXQptuOBfn5fayvHv1p9vas61NKPKgdUfpbSl3kaQwCOr5B494YrVvSCm2nOxeboc1LWk+sVgTstdGdK7Wqu1L1WPHGHO8h2izXqEqNv7+csHkQZA+y+csr9rwaZRbbBtc/koDTRue7CBRKtxXayWf9ox41f5Cv2m2ZNq5H9bXBttu12TQ92nTXFhYPKyPMH3tzEXDnUqO1XNtm/5g1WttoT+MSsNesYq5zjdIbne/N2O5G4ReHdtj5m68vQT5RbH4f97yR/xa4LCIJODdDobhCsF86Gw86BtkstKCj1uvm0XPXz6brUYPbhh7Lkn9tmlq0TAIE3DnRKDRsm+yRudooI9Nc7bDXTTuPmqH19j8rzPnc0WqmMcxtef6zYsc5n39Qmt/mP3dbVyzjfGXZcqP4WN9ijmUJOG2U7awbz9eAoI7489pz/1HLtfm1Xhv31xeUZtvpluHPx3nrEgiaM/Wgoe1w56q2IWye16N91NmcBHQONcuKVtB3oDmpV77VrXwtKNT3oPRSbVHzVX6EiysxK+C0wf4/HG5RhdLDfG0+e1Q/rUfPXZva3XMb16MbbBttus2nR7dce65HDf5yeqw9/9oyXRvx1iOQb45Uk4ZdbWAeVpMyZVfq+eBqkrQis17fxWr2rRJlt9I1IuocCPMLsheyWQ1RibGqRRlZAVfNyhSaBeM/hqVpe2yaG/fbbLttuX5fm65H9QkKWiahdQmEzYtqE9F63bqZh9UmTvn21xrcedcoVPzfh0ZpF+2oDoFyr3f58gelFbLl+04E5VUqYXaXWBQf17+YeNkCThtnOx4WD2qQ9dWjG9ey9FxDWNyWZ+vVczePe+76Wh9ri3p064maB7/mIlDq3Ciml3Ye2RW3YvLiC4FKEWjElTj9bvC9iDbCtbhWRWtJ7b0K9T0sPcju2uy12bXZ3gXZbFq9j0UJOO2I7WixDbd57VHzu2Cs3dq0HmuzvrZu6+O2wU3TC5SeW5vN7/qHxd081ieoPpvGsfkJVPsPR6lzsfnJ0oNGJdBIK3H6/dDvINfZRp0t9WlXMfMhzLcYe5hvWO+L9Q8rpxx7joDTBgUJmEIVuPnC4lqGTbNHf7mu3cbt0ebXo22jptlzG/cMi338NutrfYKOQXmC/LDFg4DOpWqMuZZr56mSqkYd8RgBelEvAiriUqlUvar36tXvSLX/A1XXDla4cq4jS4AWYhGW7rfn+xvg911Se7RYufkL1ZIj4Ao5R03XRts/Xm5c89tze7RlWoiu3cb1qMEtM+i8kE3TbVkaJ0DAzrtKkNCy7KcS5VEGBKpNoN4rcay8VXuE41N+1L/d+fzcNL+e8JNyfYtJ8/tW87xoAaedsh13GxZmV5+wNNdu43rUjwatJyyu6TbN+kaxqU9QCOpTkB+2eBEod9w1v78Md17Gixa9iSOBeq3E1Xv1L45j2ex9KufamS+vP81es/12yy/MbtMb5dhLwGnDbeeKbaSb1437y3HTguJq0+BPU5u2zaa77bQ2m08vDq5N7Ta4+awtzNemc4wfAXcuFdM7zWc/xeTDFwKNSqDWK3FWvHHdjT4jSr1eRa+h+TwLzZ+gdOWoISgtCoGo+aL6RakzzKeXgAtzdO3aMAvBtfvjrp8bVz/bOTspbXl+u3selM+t05bh+mnctfvT9JzQmgSKuX2jc8h+LC07N+05Rwg0M4FarcRZ8dbMrGh77QkUc70N8rU6ICjN7U2+9Hxpbhm1ipck4PI1TjtoQamfe+7GbRnWpkcNNq/fHpRuy3DzWJt7tHldW764LS+fD2mtQUDnAg9Zt8ZY00uRaos4/S5xfS1tphX7d6y0WuqXqxL9CyvDzrmwdO11vrQo6S65QmW5vuXEAwWcVm47HFZ4Ph9/mnvuxm3Zrs0fVx/bFk3Tjw2u3drs0b5KxJ5bX3ue7+jWkc+PtOYloPMhaJzVbj+2d0F+No0jBOJGwN5OrXS/dOUt7HtX6briWF4xdwzi2P+wPoVdn3Wu2RDmEzXd+jXaMVDARW2kQnEhufn8ae65henmdW1uXMu05xp3LwCu3abpUYOmBZXfk8q/rU6gu7tbVOTbYFcG3Dlj0zhCoJUI6LWz0itx+r3iu1XeLPL/TSuvtObM7f+bH9QLd55F8a+Uj21LlPKsb7nHUAGnjXBBlFKRv4xC51qH66NxDW47rM3a3XM3run+c7UFBbf8oHRs8SGgQk1XAuwKrY69O/5R50x8iNATCAQTqNRKnH7nWD0KZlyM1b1OFZOvmXxLvf66bKKWUWk/5Ry1zEqNSaiAi1qBNtiF58/nTy90rvktBFuuPdc0a3P9wuw2n5tHff3B+vntnMeHgM4BXXWzc0FFnP5RyReC5kWQLV8ZpEGgWQnoXC93JU6/b4W+Z83Kpx7t5vqTqwHsGBTLJap/VD/bjlof8wo4bbz9g5evYYX8/OlB51q+vy71s8GmBdnUx7Xb87ALh9/X1sExngRUrOlHQzFjb+ecSyXI5qYXiofVH2bX8vKlFaqPdAiUS6DUlTj9rtjvXbltIH/rEIhyjS31mhg1X1Q/d1RKyePmLyWeV8AVU6A2Ph94f7rtrJsnyGbbYNP03OZxbdbPpum5m+7a3bjNxzF+BFTA6x+QsPHW+RGWVi0aYfWF2aO0w53nUfzVp5Q8UcvGL34EdL6E/Yc4qLc6nxFvQWRKtxXDv/RaGiNnJa9PxZZVrL8SKyVPJUgXFHDasKh/XAr5BqWH2bRzYfVqHhv8Pm6a9dFjmN31IR4PAvaPh73ghY292v3zpxkJlNKHQnnyMQtjFJYnzB978xCwY2u/U/labr9/+XxIK56AHYPic7ZejlJZlZKvlDyVGpGCAk4r0gYWuuDbBhXytZ11ywuy2Xptua6/tfl9XLv623Jdu8bDyvL7cd58BPQPTL5VN7dHOj/C5ojrR3wJgXzfnXxpS0roHcs3BvnSepeEpZoE7K7tQuPMyls1R4GywwiUc60oNW+p+cL6UKw9koArtlDtVKEveZCPC8Of303T9vjT/W1Uf73gBP2P0V+WPy/nzUdA54O7SSHKGKtP0Pxovt43d4vzfZfzpWmvw8Y5zG5JFUq3fhxzCdjn4cK+N1a8wTeXG2eVJVCp+VWpcirbu+ilRRZw2tFCF1O32ij+Fl5QufnStB6bbusMKsOmcYw3Af1jouKtlBAm8kspizy1JxD2vQ+zR2mh/9pi84TZo6Zbv2Y/hq3Euf+BavY+Nlr7y5nPjdaXoPYU+m4F5SnHVm595eYvp+1u3v8HbATl8rMxlNoAAAAASUVORK5CYII=;" parent="B7lXgrt5KGGZ7GxgYbc7-14" vertex="1">
          <mxGeometry x="130" y="110" width="293.22" height="320" as="geometry" />
        </mxCell>
        <mxCell id="B7lXgrt5KGGZ7GxgYbc7-17" value="" style="strokeWidth=1;shadow=0;dashed=0;align=center;html=1;shape=mxgraph.mockup.containers.browserWindow;rSize=0;strokeColor=#666666;strokeColor2=#008cff;strokeColor3=#c4c4c4;mainText=,;recursiveResize=0;" parent="1" vertex="1">
          <mxGeometry x="1270" y="240" width="630" height="435.27" as="geometry" />
        </mxCell>
        <mxCell id="B7lXgrt5KGGZ7GxgYbc7-18" value="Page 1" style="strokeWidth=1;shadow=0;dashed=0;align=center;html=1;shape=mxgraph.mockup.containers.anchor;fontSize=17;fontColor=#666666;align=left;whiteSpace=wrap;" parent="B7lXgrt5KGGZ7GxgYbc7-17" vertex="1">
          <mxGeometry x="60" y="12" width="110" height="26" as="geometry" />
        </mxCell>
        <mxCell id="B7lXgrt5KGGZ7GxgYbc7-19" value="https://application.project.branch.mil" style="strokeWidth=1;shadow=0;dashed=0;align=center;html=1;shape=mxgraph.mockup.containers.anchor;rSize=0;fontSize=17;fontColor=#666666;align=left;" parent="B7lXgrt5KGGZ7GxgYbc7-17" vertex="1">
          <mxGeometry x="130" y="60" width="250" height="26" as="geometry" />
        </mxCell>
        <mxCell id="YNhsLx89JpvIndmVEhQ7-10" value="" style="group" parent="1" vertex="1" connectable="0">
          <mxGeometry x="410" y="800" width="878.5" height="555" as="geometry" />
        </mxCell>
        <mxCell id="YNhsLx89JpvIndmVEhQ7-1" value="Desktop" style="image;points=[];aspect=fixed;html=1;align=center;shadow=0;dashed=0;image=img/lib/allied_telesis/computer_and_terminals/Personal_Computer.svg;" parent="YNhsLx89JpvIndmVEhQ7-10" vertex="1">
          <mxGeometry y="240" width="45.6" height="61.800000000000004" as="geometry" />
        </mxCell>
        <mxCell id="YNhsLx89JpvIndmVEhQ7-2" value="Active Directory" style="fontColor=#0066CC;verticalAlign=top;verticalLabelPosition=bottom;labelPosition=center;align=center;html=1;outlineConnect=0;fillColor=#CCCCCC;strokeColor=#6881B3;gradientColor=none;gradientDirection=north;strokeWidth=2;shape=mxgraph.networks.server_storage;" parent="YNhsLx89JpvIndmVEhQ7-10" vertex="1">
          <mxGeometry x="773.5" y="450" width="105" height="105" as="geometry" />
        </mxCell>
        <mxCell id="YNhsLx89JpvIndmVEhQ7-3" value="GEOAxIS" style="fontColor=#0066CC;verticalAlign=top;verticalLabelPosition=bottom;labelPosition=center;align=center;html=1;outlineConnect=0;fillColor=#CCCCCC;strokeColor=#6881B3;gradientColor=none;gradientDirection=north;strokeWidth=2;shape=mxgraph.networks.server_storage;" parent="YNhsLx89JpvIndmVEhQ7-10" vertex="1">
          <mxGeometry x="723.5" width="105" height="105" as="geometry" />
        </mxCell>
        <mxCell id="YNhsLx89JpvIndmVEhQ7-4" value="Keycloak&lt;br&gt;" style="fontColor=#0066CC;verticalAlign=top;verticalLabelPosition=bottom;labelPosition=center;align=center;html=1;outlineConnect=0;fillColor=#CCCCCC;strokeColor=#6881B3;gradientColor=none;gradientDirection=north;strokeWidth=2;shape=mxgraph.networks.server_storage;" parent="YNhsLx89JpvIndmVEhQ7-10" vertex="1">
          <mxGeometry x="520" y="208.39999999999998" width="105" height="105" as="geometry" />
        </mxCell>
        <mxCell id="YNhsLx89JpvIndmVEhQ7-5" value="Application - Frontend" style="fontColor=#0066CC;verticalAlign=top;verticalLabelPosition=bottom;labelPosition=center;align=center;html=1;outlineConnect=0;fillColor=#CCCCCC;strokeColor=#6881B3;gradientColor=none;gradientDirection=north;strokeWidth=2;shape=mxgraph.networks.proxy_server;" parent="YNhsLx89JpvIndmVEhQ7-10" vertex="1">
          <mxGeometry x="240" y="208.39999999999998" width="105" height="105" as="geometry" />
        </mxCell>
        <mxCell id="YNhsLx89JpvIndmVEhQ7-6" value="" style="shape=flexArrow;endArrow=classic;startArrow=classic;html=1;rounded=0;" parent="YNhsLx89JpvIndmVEhQ7-10" edge="1">
          <mxGeometry width="100" height="100" relative="1" as="geometry">
            <mxPoint x="613.5" y="208.39999999999998" as="sourcePoint" />
            <mxPoint x="713.5" y="108.39999999999998" as="targetPoint" />
          </mxGeometry>
        </mxCell>
        <mxCell id="YNhsLx89JpvIndmVEhQ7-7" value="" style="shape=flexArrow;endArrow=classic;startArrow=classic;html=1;rounded=0;" parent="YNhsLx89JpvIndmVEhQ7-10" edge="1">
          <mxGeometry width="100" height="100" relative="1" as="geometry">
            <mxPoint x="623.5" y="330" as="sourcePoint" />
            <mxPoint x="753.5" y="450" as="targetPoint" />
          </mxGeometry>
        </mxCell>
        <mxCell id="YNhsLx89JpvIndmVEhQ7-8" value="" style="shape=flexArrow;endArrow=classic;startArrow=classic;html=1;rounded=0;" parent="YNhsLx89JpvIndmVEhQ7-10" source="YNhsLx89JpvIndmVEhQ7-5" edge="1">
          <mxGeometry width="100" height="100" relative="1" as="geometry">
            <mxPoint x="380" y="370" as="sourcePoint" />
            <mxPoint x="510" y="261" as="targetPoint" />
          </mxGeometry>
        </mxCell>
        <mxCell id="YNhsLx89JpvIndmVEhQ7-9" value="" style="shape=flexArrow;endArrow=classic;startArrow=classic;html=1;rounded=0;" parent="YNhsLx89JpvIndmVEhQ7-10" edge="1">
          <mxGeometry width="100" height="100" relative="1" as="geometry">
            <mxPoint x="60" y="270.4000000000001" as="sourcePoint" />
            <mxPoint x="225" y="270.4000000000001" as="targetPoint" />
          </mxGeometry>
        </mxCell>
        <mxCell id="Qp1SYXNilL5IMGfaVHlD-1" value="&lt;b&gt;&lt;font style=&quot;font-size: 18px;&quot;&gt;General - Browser Flow&lt;/font&gt;&lt;/b&gt;" style="text;html=1;align=center;verticalAlign=middle;resizable=0;points=[];autosize=1;strokeColor=none;fillColor=none;" vertex="1" parent="1">
          <mxGeometry x="755" y="30" width="220" height="40" as="geometry" />
        </mxCell>
      </root>
    </mxGraphModel>
  </diagram>
  <diagram id="TJUlKuJBtoqpDzEN5Qwb" name="General - Backend Flow">
    <mxGraphModel dx="2074" dy="1120" grid="1" gridSize="10" guides="1" tooltips="1" connect="1" arrows="1" fold="1" page="1" pageScale="1" pageWidth="850" pageHeight="1100" math="0" shadow="0">
      <root>
        <mxCell id="0" />
        <mxCell id="1" parent="0" />
        <mxCell id="IPVFX9LeeYGm3eXmYwJS-1" value="Keycloak&lt;br&gt;" style="fontColor=#0066CC;verticalAlign=top;verticalLabelPosition=bottom;labelPosition=center;align=center;html=1;outlineConnect=0;fillColor=#CCCCCC;strokeColor=#6881B3;gradientColor=none;gradientDirection=north;strokeWidth=2;shape=mxgraph.networks.server_storage;" parent="1" vertex="1">
          <mxGeometry x="510" y="88.39999999999998" width="105" height="105" as="geometry" />
        </mxCell>
        <mxCell id="IPVFX9LeeYGm3eXmYwJS-2" value="Application - Backend" style="fontColor=#0066CC;verticalAlign=top;verticalLabelPosition=bottom;labelPosition=center;align=center;html=1;outlineConnect=0;fillColor=#CCCCCC;strokeColor=#6881B3;gradientColor=none;gradientDirection=north;strokeWidth=2;shape=mxgraph.networks.proxy_server;" parent="1" vertex="1">
          <mxGeometry x="230" y="88.4" width="105" height="105" as="geometry" />
        </mxCell>
        <mxCell id="IPVFX9LeeYGm3eXmYwJS-3" value="" style="shape=flexArrow;endArrow=classic;startArrow=classic;html=1;rounded=0;" parent="1" source="IPVFX9LeeYGm3eXmYwJS-2" edge="1">
          <mxGeometry width="100" height="100" relative="1" as="geometry">
            <mxPoint x="370" y="250" as="sourcePoint" />
            <mxPoint x="500" y="141" as="targetPoint" />
          </mxGeometry>
        </mxCell>
        <mxCell id="zk8YogscAW573OiFMNJZ-1" value="&lt;font style=&quot;font-size: 18px;&quot;&gt;&lt;b&gt;General - Backend Flow&lt;/b&gt;&lt;/font&gt;" style="text;html=1;align=center;verticalAlign=middle;resizable=0;points=[];autosize=1;strokeColor=none;fillColor=none;" vertex="1" parent="1">
          <mxGeometry x="310" y="20" width="230" height="40" as="geometry" />
        </mxCell>
      </root>
    </mxGraphModel>
  </diagram>
  <diagram id="PDc6zzM_FX2wcQ7aI6_x" name="Architecture - General">
    <mxGraphModel dx="2074" dy="2220" grid="1" gridSize="10" guides="1" tooltips="1" connect="1" arrows="1" fold="1" page="1" pageScale="1" pageWidth="850" pageHeight="1100" math="0" shadow="0">
      <root>
        <mxCell id="0" />
        <mxCell id="1" parent="0" />
        <mxCell id="Z5lBTGAvNVThjs-GIYCy-1" value="Govcloud" style="points=[[0,0],[0.25,0],[0.5,0],[0.75,0],[1,0],[1,0.25],[1,0.5],[1,0.75],[1,1],[0.75,1],[0.5,1],[0.25,1],[0,1],[0,0.75],[0,0.5],[0,0.25]];outlineConnect=0;gradientColor=none;html=1;whiteSpace=wrap;fontSize=12;fontStyle=0;container=1;pointerEvents=0;collapsible=0;recursiveResize=0;shape=mxgraph.aws4.group;grIcon=mxgraph.aws4.group_aws_cloud_alt;strokeColor=#232F3E;fillColor=none;verticalAlign=top;align=left;spacingLeft=30;fontColor=#232F3E;dashed=0;" vertex="1" parent="1">
          <mxGeometry x="80" y="40" width="1720" height="1040" as="geometry" />
        </mxCell>
        <mxCell id="Z5lBTGAvNVThjs-GIYCy-3" value="Account: Shared Services" style="points=[[0,0],[0.25,0],[0.5,0],[0.75,0],[1,0],[1,0.25],[1,0.5],[1,0.75],[1,1],[0.75,1],[0.5,1],[0.25,1],[0,1],[0,0.75],[0,0.5],[0,0.25]];outlineConnect=0;gradientColor=none;html=1;whiteSpace=wrap;fontSize=12;fontStyle=0;container=1;pointerEvents=0;collapsible=0;recursiveResize=0;shape=mxgraph.aws4.group;grIcon=mxgraph.aws4.group_account;strokeColor=#CD2264;fillColor=none;verticalAlign=top;align=left;spacingLeft=30;fontColor=#CD2264;dashed=0;" vertex="1" parent="Z5lBTGAvNVThjs-GIYCy-1">
          <mxGeometry x="40" y="40" width="1640" height="960" as="geometry" />
        </mxCell>
        <mxCell id="Z5lBTGAvNVThjs-GIYCy-6" value="us-west-gov-1" style="points=[[0,0],[0.25,0],[0.5,0],[0.75,0],[1,0],[1,0.25],[1,0.5],[1,0.75],[1,1],[0.75,1],[0.5,1],[0.25,1],[0,1],[0,0.75],[0,0.5],[0,0.25]];outlineConnect=0;gradientColor=none;html=1;whiteSpace=wrap;fontSize=12;fontStyle=0;container=1;pointerEvents=0;collapsible=0;recursiveResize=0;shape=mxgraph.aws4.group;grIcon=mxgraph.aws4.group_region;strokeColor=#147EBA;fillColor=none;verticalAlign=top;align=left;spacingLeft=30;fontColor=#147EBA;dashed=1;" vertex="1" parent="Z5lBTGAvNVThjs-GIYCy-3">
          <mxGeometry x="40" y="40" width="1560" height="880" as="geometry" />
        </mxCell>
        <mxCell id="Z5lBTGAvNVThjs-GIYCy-12" value="VPC" style="points=[[0,0],[0.25,0],[0.5,0],[0.75,0],[1,0],[1,0.25],[1,0.5],[1,0.75],[1,1],[0.75,1],[0.5,1],[0.25,1],[0,1],[0,0.75],[0,0.5],[0,0.25]];outlineConnect=0;gradientColor=none;html=1;whiteSpace=wrap;fontSize=12;fontStyle=0;container=1;pointerEvents=0;collapsible=0;recursiveResize=0;shape=mxgraph.aws4.group;grIcon=mxgraph.aws4.group_vpc;strokeColor=#248814;fillColor=none;verticalAlign=top;align=left;spacingLeft=30;fontColor=#AAB7B8;dashed=0;" vertex="1" parent="Z5lBTGAvNVThjs-GIYCy-6">
          <mxGeometry x="40" y="40" width="1480" height="840" as="geometry" />
        </mxCell>
        <mxCell id="Z5lBTGAvNVThjs-GIYCy-20" value="Route53 - Public&lt;br&gt;project.branch.mil" style="sketch=0;points=[[0,0,0],[0.25,0,0],[0.5,0,0],[0.75,0,0],[1,0,0],[0,1,0],[0.25,1,0],[0.5,1,0],[0.75,1,0],[1,1,0],[0,0.25,0],[0,0.5,0],[0,0.75,0],[1,0.25,0],[1,0.5,0],[1,0.75,0]];outlineConnect=0;fontColor=#232F3E;fillColor=#8C4FFF;strokeColor=#ffffff;dashed=0;verticalLabelPosition=bottom;verticalAlign=top;align=center;html=1;fontSize=12;fontStyle=0;aspect=fixed;shape=mxgraph.aws4.resourceIcon;resIcon=mxgraph.aws4.route_53;" vertex="1" parent="Z5lBTGAvNVThjs-GIYCy-12">
          <mxGeometry x="40" y="40" width="78" height="78" as="geometry" />
        </mxCell>
        <mxCell id="Z5lBTGAvNVThjs-GIYCy-28" value="ACM" style="sketch=0;points=[[0,0,0],[0.25,0,0],[0.5,0,0],[0.75,0,0],[1,0,0],[0,1,0],[0.25,1,0],[0.5,1,0],[0.75,1,0],[1,1,0],[0,0.25,0],[0,0.5,0],[0,0.75,0],[1,0.25,0],[1,0.5,0],[1,0.75,0]];outlineConnect=0;fontColor=#232F3E;fillColor=#DD344C;strokeColor=#ffffff;dashed=0;verticalLabelPosition=bottom;verticalAlign=top;align=center;html=1;fontSize=12;fontStyle=0;aspect=fixed;shape=mxgraph.aws4.resourceIcon;resIcon=mxgraph.aws4.certificate_manager_3;" vertex="1" parent="Z5lBTGAvNVThjs-GIYCy-12">
          <mxGeometry x="40" y="200" width="78" height="78" as="geometry" />
        </mxCell>
        <mxCell id="Z5lBTGAvNVThjs-GIYCy-29" value="IAM" style="sketch=0;points=[[0,0,0],[0.25,0,0],[0.5,0,0],[0.75,0,0],[1,0,0],[0,1,0],[0.25,1,0],[0.5,1,0],[0.75,1,0],[1,1,0],[0,0.25,0],[0,0.5,0],[0,0.75,0],[1,0.25,0],[1,0.5,0],[1,0.75,0]];outlineConnect=0;fontColor=#232F3E;fillColor=#DD344C;strokeColor=#ffffff;dashed=0;verticalLabelPosition=bottom;verticalAlign=top;align=center;html=1;fontSize=12;fontStyle=0;aspect=fixed;shape=mxgraph.aws4.resourceIcon;resIcon=mxgraph.aws4.identity_and_access_management;" vertex="1" parent="Z5lBTGAvNVThjs-GIYCy-12">
          <mxGeometry x="160" y="200" width="78" height="78" as="geometry" />
        </mxCell>
        <mxCell id="Z5lBTGAvNVThjs-GIYCy-26" value="Cloudwatch" style="sketch=0;points=[[0,0,0],[0.25,0,0],[0.5,0,0],[0.75,0,0],[1,0,0],[0,1,0],[0.25,1,0],[0.5,1,0],[0.75,1,0],[1,1,0],[0,0.25,0],[0,0.5,0],[0,0.75,0],[1,0.25,0],[1,0.5,0],[1,0.75,0]];points=[[0,0,0],[0.25,0,0],[0.5,0,0],[0.75,0,0],[1,0,0],[0,1,0],[0.25,1,0],[0.5,1,0],[0.75,1,0],[1,1,0],[0,0.25,0],[0,0.5,0],[0,0.75,0],[1,0.25,0],[1,0.5,0],[1,0.75,0]];outlineConnect=0;fontColor=#232F3E;fillColor=#E7157B;strokeColor=#ffffff;dashed=0;verticalLabelPosition=bottom;verticalAlign=top;align=center;html=1;fontSize=12;fontStyle=0;aspect=fixed;shape=mxgraph.aws4.resourceIcon;resIcon=mxgraph.aws4.cloudwatch_2;" vertex="1" parent="Z5lBTGAvNVThjs-GIYCy-12">
          <mxGeometry x="280" y="200" width="78" height="78" as="geometry" />
        </mxCell>
        <mxCell id="Z5lBTGAvNVThjs-GIYCy-30" value="Secrets Manager" style="sketch=0;points=[[0,0,0],[0.25,0,0],[0.5,0,0],[0.75,0,0],[1,0,0],[0,1,0],[0.25,1,0],[0.5,1,0],[0.75,1,0],[1,1,0],[0,0.25,0],[0,0.5,0],[0,0.75,0],[1,0.25,0],[1,0.5,0],[1,0.75,0]];outlineConnect=0;fontColor=#232F3E;fillColor=#DD344C;strokeColor=#ffffff;dashed=0;verticalLabelPosition=bottom;verticalAlign=top;align=center;html=1;fontSize=12;fontStyle=0;aspect=fixed;shape=mxgraph.aws4.resourceIcon;resIcon=mxgraph.aws4.secrets_manager;" vertex="1" parent="Z5lBTGAvNVThjs-GIYCy-12">
          <mxGeometry x="160" y="40" width="78" height="78" as="geometry" />
        </mxCell>
        <mxCell id="NWd_FEZ6SuUuKIq_hFeN-5" style="edgeStyle=orthogonalEdgeStyle;rounded=0;orthogonalLoop=1;jettySize=auto;html=1;entryX=1;entryY=0.5;entryDx=0;entryDy=0;startArrow=classic;startFill=1;strokeWidth=3;" edge="1" parent="Z5lBTGAvNVThjs-GIYCy-12" source="Z5lBTGAvNVThjs-GIYCy-33" target="Z5lBTGAvNVThjs-GIYCy-17">
          <mxGeometry relative="1" as="geometry">
            <Array as="points">
              <mxPoint x="1080" y="160" />
              <mxPoint x="1080" y="580" />
            </Array>
          </mxGeometry>
        </mxCell>
        <mxCell id="Z5lBTGAvNVThjs-GIYCy-33" value="Private subnet&lt;br&gt;cluster-service-isolated-x" style="points=[[0,0],[0.25,0],[0.5,0],[0.75,0],[1,0],[1,0.25],[1,0.5],[1,0.75],[1,1],[0.75,1],[0.5,1],[0.25,1],[0,1],[0,0.75],[0,0.5],[0,0.25]];outlineConnect=0;gradientColor=none;html=1;whiteSpace=wrap;fontSize=12;fontStyle=0;container=1;pointerEvents=0;collapsible=0;recursiveResize=0;shape=mxgraph.aws4.group;grIcon=mxgraph.aws4.group_security_group;grStroke=0;strokeColor=#147EBA;fillColor=#E6F2F8;verticalAlign=top;align=left;spacingLeft=30;fontColor=#147EBA;dashed=0;" vertex="1" parent="Z5lBTGAvNVThjs-GIYCy-12">
          <mxGeometry x="1120" y="40" width="285" height="240" as="geometry" />
        </mxCell>
        <mxCell id="Z5lBTGAvNVThjs-GIYCy-31" value="RDS&lt;br&gt;Postgres&lt;br&gt;Keycloak DB" style="sketch=0;points=[[0,0,0],[0.25,0,0],[0.5,0,0],[0.75,0,0],[1,0,0],[0,1,0],[0.25,1,0],[0.5,1,0],[0.75,1,0],[1,1,0],[0,0.25,0],[0,0.5,0],[0,0.75,0],[1,0.25,0],[1,0.5,0],[1,0.75,0]];outlineConnect=0;fontColor=#232F3E;fillColor=#C925D1;strokeColor=#ffffff;dashed=0;verticalLabelPosition=bottom;verticalAlign=top;align=center;html=1;fontSize=12;fontStyle=0;aspect=fixed;shape=mxgraph.aws4.resourceIcon;resIcon=mxgraph.aws4.rds;" vertex="1" parent="Z5lBTGAvNVThjs-GIYCy-33">
          <mxGeometry x="103.5" y="50" width="78" height="78" as="geometry" />
        </mxCell>
        <mxCell id="NWd_FEZ6SuUuKIq_hFeN-1" value="ECR" style="sketch=0;points=[[0,0,0],[0.25,0,0],[0.5,0,0],[0.75,0,0],[1,0,0],[0,1,0],[0.25,1,0],[0.5,1,0],[0.75,1,0],[1,1,0],[0,0.25,0],[0,0.5,0],[0,0.75,0],[1,0.25,0],[1,0.5,0],[1,0.75,0]];outlineConnect=0;fontColor=#232F3E;fillColor=#ED7100;strokeColor=#ffffff;dashed=0;verticalLabelPosition=bottom;verticalAlign=top;align=center;html=1;fontSize=12;fontStyle=0;aspect=fixed;shape=mxgraph.aws4.resourceIcon;resIcon=mxgraph.aws4.ecr;" vertex="1" parent="Z5lBTGAvNVThjs-GIYCy-12">
          <mxGeometry x="280" y="40" width="78" height="78" as="geometry" />
        </mxCell>
        <mxCell id="bvZokZtZafdsMqKOgtxG-1" style="edgeStyle=orthogonalEdgeStyle;rounded=0;orthogonalLoop=1;jettySize=auto;html=1;startArrow=classic;startFill=1;strokeWidth=3;" edge="1" parent="Z5lBTGAvNVThjs-GIYCy-12" source="Z5lBTGAvNVThjs-GIYCy-15" target="Z5lBTGAvNVThjs-GIYCy-14">
          <mxGeometry relative="1" as="geometry" />
        </mxCell>
        <mxCell id="Z5lBTGAvNVThjs-GIYCy-15" value="Private subnet&lt;br&gt;cluster-worker-nodes-x" style="points=[[0,0],[0.25,0],[0.5,0],[0.75,0],[1,0],[1,0.25],[1,0.5],[1,0.75],[1,1],[0.75,1],[0.5,1],[0.25,1],[0,1],[0,0.75],[0,0.5],[0,0.25]];outlineConnect=0;gradientColor=none;html=1;whiteSpace=wrap;fontSize=12;fontStyle=0;container=1;pointerEvents=0;collapsible=0;recursiveResize=0;shape=mxgraph.aws4.group;grIcon=mxgraph.aws4.group_security_group;grStroke=0;strokeColor=#147EBA;fillColor=#E6F2F8;verticalAlign=top;align=left;spacingLeft=30;fontColor=#147EBA;dashed=0;" vertex="1" parent="Z5lBTGAvNVThjs-GIYCy-12">
          <mxGeometry x="760" y="40" width="280" height="240" as="geometry" />
        </mxCell>
        <mxCell id="Z5lBTGAvNVThjs-GIYCy-13" value="Auto Scaling group&lt;br&gt;compute-xlarge" style="points=[[0,0],[0.25,0],[0.5,0],[0.75,0],[1,0],[1,0.25],[1,0.5],[1,0.75],[1,1],[0.75,1],[0.5,1],[0.25,1],[0,1],[0,0.75],[0,0.5],[0,0.25]];outlineConnect=0;gradientColor=none;html=1;whiteSpace=wrap;fontSize=12;fontStyle=0;container=1;pointerEvents=0;collapsible=0;recursiveResize=0;shape=mxgraph.aws4.groupCenter;grIcon=mxgraph.aws4.group_auto_scaling_group;grStroke=1;strokeColor=#D86613;fillColor=none;verticalAlign=top;align=center;fontColor=#D86613;dashed=1;spacingTop=25;" vertex="1" parent="Z5lBTGAvNVThjs-GIYCy-15">
          <mxGeometry x="44" y="50" width="192" height="182" as="geometry" />
        </mxCell>
        <mxCell id="Z5lBTGAvNVThjs-GIYCy-9" value="EKS Worker Nodes&lt;br&gt;EC2 - RHEL9 / AL2023" style="sketch=0;points=[[0,0,0],[0.25,0,0],[0.5,0,0],[0.75,0,0],[1,0,0],[0,1,0],[0.25,1,0],[0.5,1,0],[0.75,1,0],[1,1,0],[0,0.25,0],[0,0.5,0],[0,0.75,0],[1,0.25,0],[1,0.5,0],[1,0.75,0]];outlineConnect=0;fontColor=#232F3E;fillColor=#ED7100;strokeColor=#ffffff;dashed=0;verticalLabelPosition=bottom;verticalAlign=top;align=center;html=1;fontSize=12;fontStyle=0;aspect=fixed;shape=mxgraph.aws4.resourceIcon;resIcon=mxgraph.aws4.ec2;" vertex="1" parent="Z5lBTGAvNVThjs-GIYCy-13">
          <mxGeometry x="57" y="61" width="78" height="78" as="geometry" />
        </mxCell>
        <mxCell id="bvZokZtZafdsMqKOgtxG-2" style="edgeStyle=orthogonalEdgeStyle;rounded=0;orthogonalLoop=1;jettySize=auto;html=1;strokeWidth=3;startArrow=classic;startFill=1;" edge="1" parent="Z5lBTGAvNVThjs-GIYCy-12" source="Z5lBTGAvNVThjs-GIYCy-16" target="Z5lBTGAvNVThjs-GIYCy-18">
          <mxGeometry relative="1" as="geometry">
            <Array as="points">
              <mxPoint x="280" y="440" />
              <mxPoint x="280" y="440" />
            </Array>
          </mxGeometry>
        </mxCell>
        <mxCell id="Z5lBTGAvNVThjs-GIYCy-16" value="Private subnet&lt;br&gt;cluster-service-private-x" style="points=[[0,0],[0.25,0],[0.5,0],[0.75,0],[1,0],[1,0.25],[1,0.5],[1,0.75],[1,1],[0.75,1],[0.5,1],[0.25,1],[0,1],[0,0.75],[0,0.5],[0,0.25]];outlineConnect=0;gradientColor=none;html=1;whiteSpace=wrap;fontSize=12;fontStyle=0;container=1;pointerEvents=0;collapsible=0;recursiveResize=0;shape=mxgraph.aws4.group;grIcon=mxgraph.aws4.group_security_group;grStroke=0;strokeColor=#147EBA;fillColor=#E6F2F8;verticalAlign=top;align=left;spacingLeft=30;fontColor=#147EBA;dashed=0;" vertex="1" parent="Z5lBTGAvNVThjs-GIYCy-12">
          <mxGeometry x="400" y="350" width="280" height="180" as="geometry" />
        </mxCell>
        <mxCell id="Z5lBTGAvNVThjs-GIYCy-14" value="Private subnet&lt;br&gt;cluser-api-x&amp;nbsp;" style="points=[[0,0],[0.25,0],[0.5,0],[0.75,0],[1,0],[1,0.25],[1,0.5],[1,0.75],[1,1],[0.75,1],[0.5,1],[0.25,1],[0,1],[0,0.75],[0,0.5],[0,0.25]];outlineConnect=0;gradientColor=none;html=1;whiteSpace=wrap;fontSize=12;fontStyle=0;container=1;pointerEvents=0;collapsible=0;recursiveResize=0;shape=mxgraph.aws4.group;grIcon=mxgraph.aws4.group_security_group;grStroke=0;strokeColor=#147EBA;fillColor=#E6F2F8;verticalAlign=top;align=left;spacingLeft=30;fontColor=#147EBA;dashed=0;" vertex="1" parent="Z5lBTGAvNVThjs-GIYCy-12">
          <mxGeometry x="400" y="40" width="280" height="240" as="geometry" />
        </mxCell>
        <mxCell id="Z5lBTGAvNVThjs-GIYCy-7" value="EKS Cluster&lt;br&gt;&amp;nbsp;SharedServices" style="sketch=0;points=[[0,0,0],[0.25,0,0],[0.5,0,0],[0.75,0,0],[1,0,0],[0,1,0],[0.25,1,0],[0.5,1,0],[0.75,1,0],[1,1,0],[0,0.25,0],[0,0.5,0],[0,0.75,0],[1,0.25,0],[1,0.5,0],[1,0.75,0]];outlineConnect=0;fontColor=#232F3E;fillColor=#ED7100;strokeColor=#ffffff;dashed=0;verticalLabelPosition=bottom;verticalAlign=top;align=center;html=1;fontSize=12;fontStyle=0;aspect=fixed;shape=mxgraph.aws4.resourceIcon;resIcon=mxgraph.aws4.eks;" vertex="1" parent="Z5lBTGAvNVThjs-GIYCy-14">
          <mxGeometry x="101" y="81" width="78" height="78" as="geometry" />
        </mxCell>
        <mxCell id="Z5lBTGAvNVThjs-GIYCy-18" value="Public subnet&lt;br&gt;cluster-service-public-x" style="points=[[0,0],[0.25,0],[0.5,0],[0.75,0],[1,0],[1,0.25],[1,0.5],[1,0.75],[1,1],[0.75,1],[0.5,1],[0.25,1],[0,1],[0,0.75],[0,0.5],[0,0.25]];outlineConnect=0;gradientColor=none;html=1;whiteSpace=wrap;fontSize=12;fontStyle=0;container=1;pointerEvents=0;collapsible=0;recursiveResize=0;shape=mxgraph.aws4.group;grIcon=mxgraph.aws4.group_security_group;grStroke=0;strokeColor=#248814;fillColor=#E9F3E6;verticalAlign=top;align=left;spacingLeft=30;fontColor=#248814;dashed=0;" vertex="1" parent="Z5lBTGAvNVThjs-GIYCy-12">
          <mxGeometry x="40" y="360" width="210" height="440" as="geometry" />
        </mxCell>
        <mxCell id="Z5lBTGAvNVThjs-GIYCy-22" value="NAT Gateway" style="sketch=0;outlineConnect=0;fontColor=#232F3E;gradientColor=none;fillColor=#8C4FFF;strokeColor=none;dashed=0;verticalLabelPosition=bottom;verticalAlign=top;align=center;html=1;fontSize=12;fontStyle=0;aspect=fixed;pointerEvents=1;shape=mxgraph.aws4.nat_gateway;" vertex="1" parent="Z5lBTGAvNVThjs-GIYCy-18">
          <mxGeometry x="66" y="50" width="78" height="78" as="geometry" />
        </mxCell>
        <mxCell id="Z5lBTGAvNVThjs-GIYCy-23" value="ALB&lt;br&gt;sso.project.branch.mil" style="sketch=0;outlineConnect=0;fontColor=#232F3E;gradientColor=none;fillColor=#8C4FFF;strokeColor=none;dashed=0;verticalLabelPosition=bottom;verticalAlign=top;align=center;html=1;fontSize=12;fontStyle=0;aspect=fixed;pointerEvents=1;shape=mxgraph.aws4.application_load_balancer;" vertex="1" parent="Z5lBTGAvNVThjs-GIYCy-18">
          <mxGeometry x="66" y="170" width="78" height="78" as="geometry" />
        </mxCell>
        <mxCell id="Z5lBTGAvNVThjs-GIYCy-24" value="ALB - mTLS Enabled&lt;br&gt;sso-mtls.project.branch.mil" style="sketch=0;outlineConnect=0;fontColor=#232F3E;gradientColor=none;fillColor=#8C4FFF;strokeColor=none;dashed=0;verticalLabelPosition=bottom;verticalAlign=top;align=center;html=1;fontSize=12;fontStyle=0;aspect=fixed;pointerEvents=1;shape=mxgraph.aws4.application_load_balancer;" vertex="1" parent="Z5lBTGAvNVThjs-GIYCy-18">
          <mxGeometry x="66" y="300" width="78" height="78" as="geometry" />
        </mxCell>
        <mxCell id="X2FXsI-SC9VU1Dz6nF3D-2" style="edgeStyle=orthogonalEdgeStyle;rounded=0;orthogonalLoop=1;jettySize=auto;html=1;strokeWidth=3;startArrow=classic;startFill=1;" edge="1" parent="Z5lBTGAvNVThjs-GIYCy-12" source="Z5lBTGAvNVThjs-GIYCy-17" target="Z5lBTGAvNVThjs-GIYCy-16">
          <mxGeometry relative="1" as="geometry">
            <Array as="points">
              <mxPoint x="730" y="440" />
              <mxPoint x="730" y="440" />
            </Array>
          </mxGeometry>
        </mxCell>
        <mxCell id="2u3bG38uy4ZVy4aNVKaF-3" style="edgeStyle=orthogonalEdgeStyle;rounded=0;orthogonalLoop=1;jettySize=auto;html=1;startArrow=classic;startFill=1;strokeWidth=3;" edge="1" parent="Z5lBTGAvNVThjs-GIYCy-12" source="Z5lBTGAvNVThjs-GIYCy-17" target="X2FXsI-SC9VU1Dz6nF3D-1">
          <mxGeometry relative="1" as="geometry">
            <Array as="points">
              <mxPoint x="730" y="660" />
              <mxPoint x="730" y="660" />
            </Array>
          </mxGeometry>
        </mxCell>
        <mxCell id="Z5lBTGAvNVThjs-GIYCy-17" value="Private subnet&lt;br&gt;cluster-pods-x" style="points=[[0,0],[0.25,0],[0.5,0],[0.75,0],[1,0],[1,0.25],[1,0.5],[1,0.75],[1,1],[0.75,1],[0.5,1],[0.25,1],[0,1],[0,0.75],[0,0.5],[0,0.25]];outlineConnect=0;gradientColor=none;html=1;whiteSpace=wrap;fontSize=12;fontStyle=0;container=1;pointerEvents=0;collapsible=0;recursiveResize=0;shape=mxgraph.aws4.group;grIcon=mxgraph.aws4.group_security_group;grStroke=0;strokeColor=#147EBA;fillColor=#E6F2F8;verticalAlign=top;align=left;spacingLeft=30;fontColor=#147EBA;dashed=0;" vertex="1" parent="Z5lBTGAvNVThjs-GIYCy-12">
          <mxGeometry x="760" y="350" width="280" height="460" as="geometry" />
        </mxCell>
        <mxCell id="NWd_FEZ6SuUuKIq_hFeN-3" value="EC2 instance contents&lt;br&gt;compute-xlarge&lt;br&gt;EKS Worker Node - X" style="points=[[0,0],[0.25,0],[0.5,0],[0.75,0],[1,0],[1,0.25],[1,0.5],[1,0.75],[1,1],[0.75,1],[0.5,1],[0.25,1],[0,1],[0,0.75],[0,0.5],[0,0.25]];outlineConnect=0;gradientColor=none;html=1;whiteSpace=wrap;fontSize=12;fontStyle=0;container=1;pointerEvents=0;collapsible=0;recursiveResize=0;shape=mxgraph.aws4.group;grIcon=mxgraph.aws4.group_ec2_instance_contents;strokeColor=#D86613;fillColor=none;verticalAlign=top;align=left;spacingLeft=30;fontColor=#D86613;dashed=0;" vertex="1" parent="Z5lBTGAvNVThjs-GIYCy-17">
          <mxGeometry x="44" y="40" width="196" height="380" as="geometry" />
        </mxCell>
        <mxCell id="Z5lBTGAvNVThjs-GIYCy-11" value="Keycloak" style="sketch=0;outlineConnect=0;fontColor=#232F3E;gradientColor=none;fillColor=#ED7100;strokeColor=none;dashed=0;verticalLabelPosition=bottom;verticalAlign=top;align=center;html=1;fontSize=12;fontStyle=0;aspect=fixed;pointerEvents=1;shape=mxgraph.aws4.container_3;" vertex="1" parent="NWd_FEZ6SuUuKIq_hFeN-3">
          <mxGeometry x="74" y="80" width="48" height="31" as="geometry" />
        </mxCell>
        <mxCell id="2u3bG38uy4ZVy4aNVKaF-2" style="edgeStyle=orthogonalEdgeStyle;rounded=0;orthogonalLoop=1;jettySize=auto;html=1;startArrow=classic;startFill=1;strokeWidth=3;" edge="1" parent="Z5lBTGAvNVThjs-GIYCy-12" source="X2FXsI-SC9VU1Dz6nF3D-1" target="Z5lBTGAvNVThjs-GIYCy-18">
          <mxGeometry relative="1" as="geometry">
            <Array as="points">
              <mxPoint x="270" y="660" />
              <mxPoint x="270" y="660" />
            </Array>
          </mxGeometry>
        </mxCell>
        <mxCell id="X2FXsI-SC9VU1Dz6nF3D-1" value="Private subnet&lt;br&gt;k8s Service - Hidden Block" style="points=[[0,0],[0.25,0],[0.5,0],[0.75,0],[1,0],[1,0.25],[1,0.5],[1,0.75],[1,1],[0.75,1],[0.5,1],[0.25,1],[0,1],[0,0.75],[0,0.5],[0,0.25]];outlineConnect=0;gradientColor=none;html=1;whiteSpace=wrap;fontSize=12;fontStyle=0;container=1;pointerEvents=0;collapsible=0;recursiveResize=0;shape=mxgraph.aws4.group;grIcon=mxgraph.aws4.group_security_group;grStroke=0;strokeColor=#147EBA;fillColor=#E6F2F8;verticalAlign=top;align=left;spacingLeft=30;fontColor=#147EBA;dashed=0;" vertex="1" parent="Z5lBTGAvNVThjs-GIYCy-12">
          <mxGeometry x="400" y="570" width="280" height="180" as="geometry" />
        </mxCell>
        <mxCell id="2u3bG38uy4ZVy4aNVKaF-1" value="k8s Service&lt;br&gt;Loadbalancer&lt;br&gt;service-keycloak-instance" style="sketch=0;outlineConnect=0;fontColor=#232F3E;gradientColor=none;fillColor=#8C4FFF;strokeColor=none;dashed=0;verticalLabelPosition=bottom;verticalAlign=top;align=center;html=1;fontSize=12;fontStyle=0;aspect=fixed;pointerEvents=1;shape=mxgraph.aws4.service;" vertex="1" parent="X2FXsI-SC9VU1Dz6nF3D-1">
          <mxGeometry x="101" y="49" width="78" height="76" as="geometry" />
        </mxCell>
        <mxCell id="NWd_FEZ6SuUuKIq_hFeN-2" style="edgeStyle=orthogonalEdgeStyle;rounded=0;orthogonalLoop=1;jettySize=auto;html=1;startArrow=classic;startFill=1;strokeWidth=3;" edge="1" parent="Z5lBTGAvNVThjs-GIYCy-6" source="Z5lBTGAvNVThjs-GIYCy-21" target="Z5lBTGAvNVThjs-GIYCy-18">
          <mxGeometry relative="1" as="geometry" />
        </mxCell>
        <mxCell id="Z5lBTGAvNVThjs-GIYCy-21" value="Internet&lt;br&gt;Gateway" style="sketch=0;outlineConnect=0;fontColor=#232F3E;gradientColor=none;fillColor=#8C4FFF;strokeColor=none;dashed=0;verticalLabelPosition=bottom;verticalAlign=top;align=center;html=1;fontSize=12;fontStyle=0;aspect=fixed;pointerEvents=1;shape=mxgraph.aws4.internet_gateway;" vertex="1" parent="Z5lBTGAvNVThjs-GIYCy-6">
          <mxGeometry x="-38" y="581" width="78" height="78" as="geometry" />
        </mxCell>
        <mxCell id="Tkhokf7k9OHxB5ONBhAg-2" value="&lt;font style=&quot;font-size: 18px;&quot;&gt;&lt;b&gt;Architecture - General&lt;/b&gt;&lt;/font&gt;" style="text;html=1;align=center;verticalAlign=middle;resizable=0;points=[];autosize=1;strokeColor=none;fillColor=none;" vertex="1" parent="1">
          <mxGeometry x="835" y="-40" width="210" height="40" as="geometry" />
        </mxCell>
      </root>
    </mxGraphModel>
  </diagram>
</mxfile>
